<svg xmlns="http://www.w3.org/2000/svg" viewBox="0 0 267.82 479.99"><defs><style>.cls-1,.cls-2{fill:#bae2dc;}.cls-2{stroke:#231f20;stroke-miterlimit:10;}.cls-3{fill:#afd9d2;}.cls-4{font-size:24.84px;fill:#fff;font-family:Supernova, Supernova;letter-spacing:0.1em;}</style></defs><title>rocket</title><g id="Layer_2" data-name="Layer 2"><g id="Layer_2-2" data-name="Layer 2"><rect class="cls-1" x="109.83" y="427.22" width="68.45" height="14.09"/><path d="M71.89,289.64c-7.68,8.66-14.84,17.81-21.74,27.1C37,334.46,24.37,353.3,16,373.83c-5.31,13-8.13,27.16-10.79,40.91A299.68,299.68,0,0,0,.62,446.43a145.47,145.47,0,0,0-.57,16.7c.08,2.63-.09,5.55.92,8,1.44,3.5,4.52,5.53,8.27,4.45,5.94-1.71,8.93-8.69,11.61-13.58a140.62,140.62,0,0,1,28-35.26,116.71,116.71,0,0,1,14-11.12c5.65-3.77,11.77-6.06,17.66-9.27a18.43,18.43,0,0,0,5-4.4c10.67-12.55,11.19-31.15,9-46.63-.74-5.34-1.48-10.07-1.72-15.4-.31-6.63-.82-13.27-1.65-19.85-.92-7.25-2.1-14.67-4.68-21.53-1.49-4-3.88-9.26-8.56-10.11a10,10,0,0,0-5.35.75c-1.91.74-.12,1.17,1,.73,10.24-4,13.63,23.36,14.37,28.67,1.34,9.62,1.29,19.24,2.17,28.87.49,5.51,1.95,10.9,2.3,16.47A76.62,76.62,0,0,1,92,380.51a46.94,46.94,0,0,1-6.6,18.42c-1.56,2.42-3.66,5.31-6.19,6.85-2.77,1.69-6.23,2.64-9.13,4.16a104.78,104.78,0,0,0-13.31,8.33c-13.47,9.89-24.85,22.62-34,36.54-1.78,2.7-3.48,5.44-5,8.28-1.68,3.09-5.86,13.05-10.55,11.2-1.5-.59-2.77-2.64-3.32-4.07-.81-2.09-.71-4.45-.81-6.67a136,136,0,0,1,.32-15.24,284.25,284.25,0,0,1,4.53-32.84c2.27-11.94,4.64-24.19,8.61-35.72,7.4-21.53,20.34-41.2,33.63-59.51,7.69-10.58,15.76-21,24.45-30.78C75.15,288.77,72.38,289.09,71.89,289.64Z"/><path d="M173.13,302.74c-3.92,26.94-7.6,54.86-6.34,82.11.26,5.8.94,10.18,3.52,15.34a45.8,45.8,0,0,0,6,9.45c2.38,2.78,5.27,3.83,7.95,6,3.05,2.42,5.41,7.44,7.63,10.58,4.77,6.79,9.44,13.66,13.86,20.68s8.75,14,11.87,21.55c2.26,5.48,4.34,12,11.79,10.6,11.06-2.05,9.72-18.66,9.48-27.13-1-34.81-5.77-69.65-16.95-102.7-5.78-17.1-12.68-35.81-24.89-49.47-7.78-8.7-21.54-12.23-24,3-.18,1.15,2.74.67,2.9-.35.66-4.16,2.14-9.57,7.4-8.79a14.66,14.66,0,0,1,5.75,2.37c4.76,3.16,8.44,8.54,11.5,13.26,8.47,13.06,14.18,28,19,42.69,10,30.09,14.56,61.6,16,93.22.3,6.52,3.34,31.41-6.89,32.35-5.31.48-6.55-5.43-8-9.09a83.93,83.93,0,0,0-4-8.41c-3.52-6.61-7.5-13-11.59-19.24-3.87-5.93-7.88-11.78-12-17.56-1.89-2.67-3.85-6.63-6.35-8.79-2-1.76-4.73-2.54-6.77-4.64a41,41,0,0,1-7-10.35,31.09,31.09,0,0,1-3.38-12.94c-1.18-17.48.61-35.29,2.39-52.67,1.08-10.49,2.3-21,3.82-31.41C176.2,301.23,173.28,301.73,173.13,302.74Z"/><path d="M180.77,413.12,174.6,421l1.91-.8h-65c-2.3,0-4.72-.22-7,0a4,4,0,0,1-1.2,0c1.35.48-.06-.78-.57-1.44L87.92,399.41c-.61-.8-3.41.2-2.68,1.15,5,6.56,9.7,13.56,15.1,19.79,2.51,2.89,7.77,1.55,11.4,1.55h59.2c1.51,0,3.93.46,5.4-.16,2.9-1.22,5.24-6.11,7.14-8.54.8-1-2.11-.85-2.71-.08Z"/><path d="M74.66,289.16c-5-23.86-5.69-49.1-5.17-73.35a427.62,427.62,0,0,1,8-74.15,399.14,399.14,0,0,1,11-42.93c2.44-7.66,6-15.17,7.59-23a131.51,131.51,0,0,1,17-42.06A124.77,124.77,0,0,1,135.78,6.19c2.82-2.55,6.36-6.17,11.07-3.71a18.63,18.63,0,0,1,2.85,2.19c1.4,1.15,2.75,2.36,4.09,3.58,3.31,3,6.48,6.21,9.47,9.55a103,103,0,0,1,18.68,28.69c5.07,12.13,5.9,25.34,9,38,4.51,18.57,10.85,36.55,14.81,55.3,12.3,58.23,13,119-.46,177.06-.25,1.11,2.67.67,2.9-.35,12.7-54.81,12.81-112,2.5-167.23-3.46-18.54-8.46-36.52-13.87-54.56a221.61,221.61,0,0,1-5.4-22.13c-1.37-7.15-2.17-14.34-4.47-21.28a96.08,96.08,0,0,0-16.85-29.81,118.06,118.06,0,0,0-18.92-19c-9.1-7.07-17.34,2.38-23.51,8.74A135.17,135.17,0,0,0,96.77,63c-1.59,4.84-2.69,9.74-3.85,14.7A78.62,78.62,0,0,1,90,86.19Q85.79,98,82.35,110A415.36,415.36,0,0,0,67.6,194.36c-2.25,31.39-2.28,64.59,4.16,95.58.22,1,3.12.3,2.9-.78Z"/><path d="M86,400.83c1.12,0,3.07-1.69,1.12-1.69-1.12,0-3.07,1.69-1.12,1.69Z"/><path d="M123.13,427.61c.69,13.79,1.45,28.86,6.09,41.95,1.35,3.83,4.56,10.07,9.21,10.4,6.8.49,9-6.54,10.57-11.59,4.21-13.3,6.52-27.72,3.74-41.53-.07-.37-.59-.55-.91-.55H125.12c-1.23,0-3,1.86-1.07,1.86h22c.87,0,3.25-.42,4,0,1.45.8-.72-1.8.1,1a29,29,0,0,1,.77,6.23A83,83,0,0,1,148.7,459a87.4,87.4,0,0,1-4.27,14.53c-.91,2.17-2.6,4.58-5.41,4.51-1.69,0-2.63-2.2-3.51-3.31-5.27-6.66-6.18-16.31-7.3-24.52-1.06-7.75-1.79-15.56-2.18-23.36C126,425.73,123.07,426.36,123.13,427.61Z"/><path d="M101.21,420.52v13.7a.83.83,0,0,0,.92.79h72.6c.55,0,2-.26,2-1.08v-13.7a.83.83,0,0,0-.92-.79H103.2c-1.25,0-3,1.87-1.07,1.87h72.6l-.92-.79v13.7l2-1.09H103.2l.92.8v-13.7C104.12,418.86,101.21,419.39,101.21,420.52Z"/><path class="cls-2" d="M93.16,82.15h97.19s-3.47-51.68-42.88-80.32a6,6,0,0,0-7.32.26C129.71,10.7,99.81,38.76,93.16,82.15Z"/><path class="cls-3" d="M165.42,199.76c0,.29.09.18.11.23C165.51,199.49,165.39,199.77,165.42,199.76Z"/><polygon class="cls-3" points="165.19 194.88 165.23 194.96 165.13 194.24 165.19 194.88"/><path class="cls-3" d="M165.2,190.31a17.31,17.31,0,0,0,0,2.47l0,.13.14.37C165.24,192.29,165.15,191,165.2,190.31Z"/><path class="cls-3" d="M165.59,187.88c-.07.15-.06-.52,0,.57l0-.1Z"/><path class="cls-3" d="M165.59,188.35c0,.48.06-.32,0,0Z"/><path class="cls-3" d="M165.55,186.13l.06.63c0-.13,0-.69.08-.49C165.66,185.63,165.62,185.76,165.55,186.13Z"/><path class="cls-3" d="M165.42,185.53l0,.33A.7.7,0,0,0,165.42,185.53Z"/><path class="cls-3" d="M165.5,186.55l-.05-.69c0,.09-.09.1,0,.31C165.41,186.12,165.46,186.26,165.5,186.55Z"/><path class="cls-3" d="M165.47,186.94c0,.36-.06.82-.12.18C165.37,188.33,165.5,188.16,165.47,186.94Z"/><path class="cls-3" d="M165,190.08l-.06.48.06.41C165,190.76,165.07,190.05,165,190.08Z"/><path class="cls-3" d="M165.65,182.19s-.1.21-.15.26l0,.46A2.77,2.77,0,0,1,165.65,182.19Z"/><path class="cls-3" d="M165.5,182.45l-.06-.7C165.43,182.37,165.46,182.48,165.5,182.45Z"/><polygon class="cls-3" points="165.22 185.41 165.36 186.56 165.22 185.19 165.22 185.41"/><polygon class="cls-3" points="165.66 179.51 165.75 179.91 165.62 179.21 165.66 179.51"/><path class="cls-3" d="M165.65,177.74c.07.3.12-.4.17-.09a10.44,10.44,0,0,0-.13-1.26A7.08,7.08,0,0,1,165.65,177.74Z"/><path class="cls-3" d="M165.61,175.77c0,.19,0,.4.08.62A6.17,6.17,0,0,0,165.61,175.77Z"/><path class="cls-3" d="M165.46,180.55a1.42,1.42,0,0,0,.11-.55l-.11.28Z"/><path class="cls-3" d="M165.46,180.29h0v0Z"/><path class="cls-3" d="M165.46,180.62v-.07S165.44,180.6,165.46,180.62Z"/><path class="cls-3" d="M165.32,183.58c0-.41-.12-1.27-.21-.44C165.18,183.44,165.24,183,165.32,183.58Z"/><path class="cls-3" d="M165.32,181l0,.74s.07-.15.1,0Z"/><polygon class="cls-3" points="165.29 180.6 165.32 180.97 165.33 180.69 165.29 180.6"/><path class="cls-3" d="M165.5,177c0-.32,0-.67-.05-1.07,0,.43,0,.86,0,1.28C165.45,177.31,165.51,177.49,165.5,177Z"/><path class="cls-3" d="M165.47,178.62v-.07S165.45,178.63,165.47,178.62Z"/><polygon class="cls-3" points="165.46 172.07 165.44 172.13 165.46 172.14 165.46 172.07"/><path class="cls-3" d="M165.39,177.32a2.82,2.82,0,0,0,0,.7l0-.77S165.39,177.22,165.39,177.32Z"/><path class="cls-3" d="M165.56,174.68l-.06.55A2.06,2.06,0,0,0,165.56,174.68Z"/><path class="cls-3" d="M165.5,178.44v.05C165.52,178.38,165.51,178.4,165.5,178.44Z"/><path class="cls-3" d="M165.5,178.44c0-.17-.05-.29-.07-.42,0,.19,0,.37,0,.53A.35.35,0,0,1,165.5,178.44Z"/><path class="cls-3" d="M164.77,170.88a3.43,3.43,0,0,1,.09,1.62c.07.72.39.25.58-.37-.05,0-.09,0-.14-.76-.06.26-.13,1.63-.22,1a3.73,3.73,0,0,1,.09-1.27c-.12.4-.18-1.23-.36-1l.06.85S164.8,170.65,164.77,170.88Z"/><path class="cls-3" d="M165.43,173.53v.3a6.52,6.52,0,0,1,.13-1c0-.51-.08-.61-.11-.65l0,1.49Z"/><path class="cls-3" d="M165.43,175.19c-.1-.24-.15-1-.26-.52a4.71,4.71,0,0,0,.13,1.15c0-1.43.06.41.12-.62,0,.28,0,.53,0,.77l.05-.74v0h0c0,.06,0,.08,0,0v0a.09.09,0,0,1,0-.06c0-.42,0-.07,0,.06v0h0l-.05-1.43C165.42,174.13,165.42,174.51,165.43,175.19Z"/><path class="cls-3" d="M164.88,182.38s0,0,0,0S164.88,182.2,164.88,182.38Z"/><path class="cls-3" d="M165,181.79a2.21,2.21,0,0,1,0,.53c0,.29-.05,0-.08,0,0,.21.07.72.12.08v-.11a5,5,0,0,1,.19-1.21A2.09,2.09,0,0,0,165,181.79Z"/><path class="cls-3" d="M165.16,178.45l0-1.2-.09.61,0,0C165.05,178.51,165.12,178.36,165.16,178.45Z"/><polygon class="cls-3" points="165.51 171.93 165.63 172.09 165.47 171.4 165.51 171.93"/><polygon class="cls-3" points="165.5 170.38 165.6 170.44 165.54 170.03 165.5 170.38"/><path class="cls-3" d="M119.27,163.05l0,.35C119.28,163.24,119.27,163.13,119.27,163.05Z"/><path class="cls-3" d="M119.28,160.51l0-.06C119.25,160.57,119.27,160.62,119.28,160.51Z"/><path class="cls-3" d="M151.1,145.46c-.51-.09-1.08-.24-1-.13l.16.11A5.71,5.71,0,0,1,151.1,145.46Z"/><path class="cls-3" d="M125,146.06l.15,0,.35-.1Z"/><path class="cls-3" d="M124.65,146.5l-.67-.07A5.77,5.77,0,0,0,124.65,146.5Z"/><path class="cls-3" d="M119.35,176.92l.11.41C119.46,176.69,119.41,177,119.35,176.92Z"/><path class="cls-3" d="M165.49,154.5c0-.44.06-.79.07-1.1A3,3,0,0,0,165.49,154.5Z"/><path class="cls-3" d="M118.12,162.05c0,.22,0,.31.06.3C118.16,162.13,118.14,162,118.12,162.05Z"/><path class="cls-3" d="M165.56,152.12l0,.24c0,.32,0,.64,0,1A4.22,4.22,0,0,0,165.56,152.12Z"/><path class="cls-3" d="M145.9,199.33l.12,0S146,199.33,145.9,199.33Z"/><path class="cls-3" d="M160.55,200.46h0Z"/><path class="cls-3" d="M165.56,164.14c0,.33,0,.05,0,0Z"/><path class="cls-3" d="M165.13,165.74c0-.07,0-.12,0-.13A.27.27,0,0,1,165.13,165.74Z"/><path class="cls-3" d="M164.89,148.85v0C164.87,148.92,164.88,148.9,164.89,148.85Z"/><path class="cls-3" d="M165.51,164.64l0-.43Z"/><path class="cls-3" d="M165.56,164.57v.29S165.58,164.86,165.56,164.57Z"/><path class="cls-3" d="M165.56,163.68c0,.19,0,.37,0,.53,0-.06,0-.09,0-.07Z"/><path class="cls-3" d="M119.17,199.57h0C119.44,199.54,119.35,199.54,119.17,199.57Z"/><path class="cls-3" d="M142.54,146.57h0Z"/><path class="cls-3" d="M141.35,146.65a2.88,2.88,0,0,1,1.17-.09l-.39-.31Z"/><path class="cls-3" d="M119.28,169.13l.1-.83c.16,1,.11,1.73.24.95-.34-.12,0-3.23-.36-3.34l.07-.55c0,.16,0,.18,0,.34.17-1.06-.24-.79-.19-2.16,0-.48.08-.81.12-.49l-.09-1.06c0-.31.07-.24.06.07l0-1.62h0c0-.23-.14-.75-.17-1,0-.41,0,.21.08.1l-.08-.9c.09-.36.17.38.16,1,.34-.84-.09-.74.11-2.56l0,.85a12.24,12.24,0,0,0,.25-2.16c-.06.22-.3,1.92-.39.94a4.69,4.69,0,0,0,0-1.16c.13,0,.1-.52.09-1.16l.16,0a4.39,4.39,0,0,0-.2-1.05,1.81,1.81,0,0,1,.25-1.12c0-1.24-.2.86-.23-.61a19.36,19.36,0,0,0-.09-3c0-.72.1.13.14-.13l-.12-.64c0-.16,0-.11.06-.08-.05-.53-.16-.07-.2-.87-.08-.07,0-.33,0-.55l.59.09a3.69,3.69,0,0,0,.94,0c.26,0-.12.1,0,.16,1.44-.12,1.24-.09,2.42-.26l1,.1c-.74-.12.2-.26,1-.37l-.63-.14,1.32-.08c.16,0,0,.08-.19.15l.24,0c.47.06.23.15-.11.24l-.48-.1c-.32.1-.63.2-.56.3a2.83,2.83,0,0,1,.43,0c-.08,0-.14,0-.1.07a1.43,1.43,0,0,0,.4-.06l.3.18.07-.07,1.73.11a33.37,33.37,0,0,1,4.28-.5c-.49.13-.11.21-.13.36a17.24,17.24,0,0,0-2.54,0c.53,0,.41.09.28.11l1.81-.14c0,.12.39.09.86.15-.36-.25,1.36-.17,2.09-.24,0,.08-.13.17-1,.14,1,.19,1.29-.29,2.26-.13-.22,0-.34,0-.42,0,.51-.08,1.77,0,1.47.06h-.22a24,24,0,0,0,4.67-.2,1.05,1.05,0,0,1-.28.29l2.6-.71c-.23.19.65.62-.56.72a8.16,8.16,0,0,0,1.51,0c-.23,0-.59-.27-.26-.28a16.06,16.06,0,0,0,1.71.28c-.35,0,0-.32.6-.31-.08,0,.05.28-.16.31l1.4-.28c-.35.05-.06.24.25.32-.14-.06,1.21,0,1.59,0l-.6-.07c1.58.05,1.57-.39,3.13-.37-.19.06-.47.36.33.39a10.21,10.21,0,0,1,3-.79l.27.08,1.06-.09c-.66.21-2.52.66-3.53.84a3.38,3.38,0,0,0,1,.09c.31.08-.49.12-.75.12l2.06.06c-.09-.17,1.58-.17,1.5-.31l-2.24.17c-.09-.17,1.3-.48,2.76-.44.37.06-.28.3-.25.35a7.19,7.19,0,0,1,1.52-.06l-.62.08a17,17,0,0,1,2.3,0c.34,0,1,.21,1.07.12-.55-.2-.66-.79-.29-.93.12,0,1.77.18,2.15.28.56.15-.83.35-.36.48a1.57,1.57,0,0,1,.46-.12c.35,0-.15.15.62.13.16-.17,1,0,.28-.15a2.69,2.69,0,0,1,.5,0,5.93,5.93,0,0,0,0,.7c.11-.28.37.8.42,1.55,0,0-.1.12-.13.21,0,1.54-.09,2.37-.1,3.81,0,.13-.09.82-.16.53a4.88,4.88,0,0,1,.09.84c-.15.86,0-1-.2-.34a10.08,10.08,0,0,1,.19,1.78,7,7,0,0,0,0-2.09c.21,0,.43,1.1.53,2.6,0,1.2-.14.52-.11.73,0,2.24.36,1.91.21,3.77-.14.74-.27,0-.37.2-.05-1,.09-1.49.09-2.15l-.07.81a7.09,7.09,0,0,1,0-1.31c-.13.61,0,3.79-.15,5.52,0,.31.09.84.14.59v-.55c.11-.51.15,1,.2.34a15.39,15.39,0,0,1,.13,2.59l-.16.19a2.61,2.61,0,0,0,0-1c.07.43-.21,1.58,0,2.06l.11-.73a16.71,16.71,0,0,1,.18,2.57c.15-.42,0-.21.16-.86-.22.56,0-2.35-.22-1.44.21-.67.09-1.16.27-2-.05,0-.1.31-.07-.46l0-.17v0s0,0,0,0a1.49,1.49,0,0,1-.08.4c-.11-.39-.11-1.61-.16-2s.05.2.11-.05l-.09-.62c.11-.06.19-1.21.25-.14v-1a10.44,10.44,0,0,0,0-1.84c0-.45-.12-1.15,0-.75l-.07-1.52h0a40.7,40.7,0,0,1,0-4.8,15.23,15.23,0,0,1,0-1.87l.1-.17c0-.65.1-1.94,0-2.22a3.4,3.4,0,0,0,.12-.81v-2l-2.07,0h-1l0,.12c-.79,0-1.54,0-2.51.08l.06.11c-.84.09-2.16-.08-3.49-.08a2.09,2.09,0,0,1,.67,0c-1.59-.26-3.35.18-4.79,0a3.59,3.59,0,0,1-.87,0h-.05l-.5-.06.42.06c-.28,0-.7,0-1.11,0l-.17-.12h-.1c-.4,0-.32.05-.11.14l-.54.07c-.33-.19-1.08.07-1.53-.14a15.28,15.28,0,0,0-2.28.28s-.14,0,.08,0a7.24,7.24,0,0,0-1.32,0l-.2-.15-1,.2c-.61-.09-.86-.15-.25-.27-1.46.18-1.19.07-2.43.25l.06-.1a9,9,0,0,1-1.41.05c-1-.19-4.91,0-7.45-.21.49.29-1.18-.14-1.28.09-.15-.07-.5-.11-.09-.17a20.46,20.46,0,0,0-2.85.08c-.15-.07.28-.1.15-.15a1.67,1.67,0,0,1-.55,0c-.13,0,.19-.06.39-.09-1.32,0-1.46.23-1.55.43a3.22,3.22,0,0,0-1.5,0c-.23-.06-.62-.13.2-.15a15.34,15.34,0,0,0-2.87.05,3.28,3.28,0,0,0-.77,0c-1.09,0-1,0-2.43,0l.4,0a1.19,1.19,0,0,1-.51.1c0,.19,0,.39,0,.63s0,.55,0,.79l0,0c-.14,1.88.07.81-.1,2.67l.12-.1c.26.18-.15,1.65,0,2.73l.06-.39a14.9,14.9,0,0,1-.38,2.25c0,.12,0-.21,0-.39-.16,1.55.15.2.19,1.36-.09.21-.22-.28-.24.5a32.08,32.08,0,0,1,.11,3.32c.07-.23.13-.46.18.07a16.51,16.51,0,0,0,0,3c0,.11,0,.15,0,.15,0,.63.09,2.05.2,2.43-.42.58.19,3.91-.19,3.9l0,1.93,0-.05a7.78,7.78,0,0,0,.15,2.11c0,.29-.06.08-.08.06a14.63,14.63,0,0,0,.12,3.5l-.12.16c.07.41-.2,2.61-.06,4.39,0,0,0-.06-.06-.2.14,2-.35,4.78.1,5.51l.11,1.32c0-1.71.19.25.27-.45,0,.67-.14,1.73-.16.91l0-.13c-.23-.3-.09,2.12-.25,2.07,0,1.68,0,3.33-.06,5l-.05,2.42,0,2.73c.06-.23.12-.43.18-.61v.94h.56c.36,0,.51.14-.68.13a5,5,0,0,0,1.23,0,2.66,2.66,0,0,0,.43-.07c.1,0,.16,0,.16,0,1.53.08-.6.21-.13.22h.64l-.14,0a6.07,6.07,0,0,1,1.5-.14c.59,0,.3.12.54.12,0,0,.08,0,.36,0l1.38,0-.56-.15c.62-.07,1.3,0,.67-.15.93.25,5.14.1,5.72.18a19.92,19.92,0,0,1,2.75-.09c-.26,0-.42-.19.49-.17-.34.33,1.65.15,2.38.39-.65-.16,2.57,0,1.54-.26.76,0,0,.12.62.2,1.8-.12,4,.1,6.17.06,0-.05-.33-.12.14-.18l1.17.22c.44,0,.41-.25,1.21-.1-.12,0-.28-.09,0-.1,4.34.22,8.88-.16,13.29.25-.6-.09-.2-.1.26-.1-.3,0,0-.11,0-.17l1.84.17c.34-.16,2,0,2.18-.16l-.59,0c.78-.19-1.09-.42-1-.66-.87.21-2.3-.32-3.73,0-.31-.05.27-.08.1-.13a4.93,4.93,0,0,1-1.61.07l.09,0c-2.27,0-3.25-.08-5.81-.16l.19.12a5.84,5.84,0,0,1-.92-.08c-.63.18,1.54,0,1,.21-.73-.24-3.88,0-4.37-.29-.85,0,.24.14-.6.14l-.23-.08-.21.1c-.55,0-.83-.11-.85-.18a4.61,4.61,0,0,0,.52,0c-.72-.09-2,0-2.27,0l.81,0c-2.31.06-5.13,0-7.36.1l.17.06c-1.7.1-1.36-.06-3.23,0h.07a9.68,9.68,0,0,1-1.39.07c.47-.06-.89-.13-.27-.2a8.48,8.48,0,0,0-2.13.29l-.28-.09a5.31,5.31,0,0,1-1.39.15c.77-.08-.6-.14.26-.25-2-.2-2.91.2-3.81-.1-.9.26,1.7.15,1.2.2.42.09-.75.19-1.36.17a17.39,17.39,0,0,0-2.64-.33l.32,0c-.59-.06-1.15.09-1.88,0-.4.16-.93,0-1,.19l1.44,0a20.16,20.16,0,0,1-2.33.19l0-.36a2.55,2.55,0,0,1,.08.25l.28,0a.78.78,0,0,0-.22,0,1.81,1.81,0,0,1,0-.52c.09,0,.11.19.11.41h.49a7.48,7.48,0,0,0,.87-.07,4.44,4.44,0,0,0-.89,0c-.14,0-.23,0-.09-.09a.61.61,0,0,1-.34.12,3.54,3.54,0,0,1,0-.45,4.46,4.46,0,0,0-.08-1.06l.12.07c0-.17-.07-.52-.07-.83l.16.56c-.13-.86.11-1.66,0-2.49,0,1.73-.14.39-.23,1.12-.15-2.14.32-1.23.26-3.62,0,.32-.07,1.21-.12.7a10.48,10.48,0,0,1,.13-1.33c0-1.59-.12.24-.19-.43.14-.54-.06-.78-.11-1.48h.12c.09-1.81-.25-.48-.15-2.11l.17.69,0-.85.13.17a10.65,10.65,0,0,1,0-2.11c-.09.21-.22-.12-.22-.92.07-.55.11.31.1-.83a1.76,1.76,0,0,1,0,1c0,.05.08.25.12.31a15.19,15.19,0,0,0,0-1.89c0,.16,0,.34,0,.44l-.16-1.64c0-.26.08-.06.11.15,0-.34-.06-.57-.07-1.06.09.13.2.1.24.79l-.11-1.57c0-.1.12-.8.16-.6.06-.86-.19-2.13-.11-3.28a1.76,1.76,0,0,1,0-.43,22.78,22.78,0,0,0,0-3.32l.17-.73c0-1-.22,1-.28-.69-.06-1.18.15-.44.2-.86a9.15,9.15,0,0,1-.12-2.7C119.3,168.51,119.27,168.79,119.28,169.13Zm0-12.4a2.77,2.77,0,0,1,0,.9C119.12,157.35,119.19,157.14,119.23,156.73Zm7.61-10.44a2.31,2.31,0,0,1-.77,0A7.14,7.14,0,0,1,126.84,146.29Zm38.63,14.24v0C165.51,160,165.49,160.16,165.47,160.53Zm-.06,1.12c0,.11,0,.1.05,0a2.45,2.45,0,0,1,0-.61A1.49,1.49,0,0,0,165.41,161.65Zm-42.94,38.74-.22,0C122.74,200.32,122.61,200.35,122.47,200.39Z"/><path class="cls-3" d="M124.7,146.45c-.07,0-.09,0-.1-.06S124.5,146.43,124.7,146.45Z"/><path class="cls-3" d="M119.33,176.84v0l0,0Z"/><path class="cls-3" d="M163.21,146.6a2,2,0,0,1-.44-.07S162.86,146.59,163.21,146.6Z"/><path class="cls-3" d="M165.61,167.54l0-.71a4.21,4.21,0,0,1,0,.64S165.61,167.32,165.61,167.54Z"/><path class="cls-3" d="M164.85,173.73c0,.1,0,.22,0,.32l0,0C164.92,173.58,164.87,173.27,164.85,173.73Z"/><path class="cls-3" d="M165.21,168.2c-.11.06-.07.51-.05,1v-.09C165.3,169.27,165.25,168.73,165.21,168.2Z"/><path class="cls-3" d="M165.16,169.32c0,.16,0,.31,0,.46S165.17,169.6,165.16,169.32Z"/><path class="cls-3" d="M165.48,163.06c0,.24.13.15.09.28C165.7,163.61,165.41,161.76,165.48,163.06Z"/><polygon class="cls-3" points="164.87 168.61 165 168.43 164.9 168.15 164.87 168.61"/><path class="cls-3" d="M165,164.67l0,.79s0,.09,0,.22A6.48,6.48,0,0,0,165,164.67Z"/><path class="cls-3" d="M165,165.68a4,4,0,0,0,0,.64C165,166.18,165,165.88,165,165.68Z"/><polygon class="cls-3" points="164.84 167.52 164.86 167.28 164.87 166.72 164.84 167.52"/><path class="cls-3" d="M165,156.09l0-.87c0-.09-.07.15-.06.47S165,156.22,165,156.09Z"/><path class="cls-3" d="M164.66,158.72a1.43,1.43,0,0,1,.1-.38l-.16,0Z"/><path class="cls-3" d="M164.63,156.18c0-.08-.12-1.26-.11-.16C164.56,156.11,164.59,157,164.63,156.18Z"/><polygon class="cls-3" points="161.87 146.17 162.09 146.17 162.06 145.91 161.87 146.17"/><path class="cls-3" d="M150.3,146.76c1,.06.25-.16,1.18-.08.24-.06-.76-.07-.51-.12C150.34,146.62,150,146.59,150.3,146.76Z"/><path class="cls-3" d="M151,146.56l.32,0Z"/><polygon class="cls-3" points="162.98 200.6 163.64 200.65 163.22 200.56 162.98 200.6"/><path class="cls-3" d="M164.25,200.41l.16.16.4-.14A2.55,2.55,0,0,1,164.25,200.41Z"/><path class="cls-3" d="M119.56,154.89l0,0a2.11,2.11,0,0,0,0,.57Z"/><polygon class="cls-3" points="119.42 163.89 119.43 163.73 119.28 164.02 119.42 163.89"/><path class="cls-3" d="M119.59,171.44v-1C119.6,171.13,119.41,171.52,119.59,171.44Z"/><rect class="cls-3" x="120.41" y="163.88" width="53.88" height="46.21" transform="translate(-39.92 333.97) rotate(-89.89)"/><text class="cls-4" transform="translate(133.76 186.99) rotate(0.11)">D<tspan x="16.41" y="0"> </tspan></text><circle class="cls-1" cx="13.4" cy="176.88" r="3.87"/><circle class="cls-1" cx="216.67" cy="130.81" r="3.87"/><circle class="cls-1" cx="263.94" cy="192.92" r="3.87"/><circle class="cls-1" cx="39.66" cy="136.52" r="3.87"/><circle class="cls-1" cx="222.19" cy="82.15" r="3.87"/><circle class="cls-1" cx="76.68" cy="28.47" r="3.87"/><circle class="cls-1" cx="39.66" cy="233.81" r="3.87"/></g></g></svg>