<svg xmlns="http://www.w3.org/2000/svg" viewBox="0 0 529.96 404.25"><defs><style>.cls-1{fill:#afd9d2;}.cls-2{fill:#fff;}.cls-3{fill:#bae2dc;}</style></defs><title>astro</title><g id="Layer_2" data-name="Layer 2"><g id="Layer_2-2" data-name="Layer 2"><path class="cls-1" d="M174,230.65c0,.3.09.19.11.24C174,230.39,173.92,230.67,174,230.65Z"/><polygon class="cls-1" points="173.72 225.77 173.76 225.86 173.66 225.14 173.72 225.77"/><path class="cls-1" d="M173.73,221.21a17.27,17.27,0,0,0,0,2.47l0,.13.14.37C173.77,223.19,173.68,221.91,173.73,221.21Z"/><path class="cls-1" d="M174.12,218.78c-.07.15-.06-.53,0,.57l0-.11Z"/><path class="cls-1" d="M174.12,219.24c0,.48.06-.31,0,0Z"/><path class="cls-1" d="M174.08,217l.06.63c0-.13.05-.7.08-.49C174.19,216.52,174.15,216.66,174.08,217Z"/><path class="cls-1" d="M174,216.43l0,.32A.55.55,0,0,0,174,216.43Z"/><path class="cls-1" d="M174,217.45l-.05-.7c0,.1-.09.1,0,.32C174,217,174,217.15,174,217.45Z"/><path class="cls-1" d="M174,217.84c0,.36-.07.82-.13.18C173.9,219.23,174,219.05,174,217.84Z"/><path class="cls-1" d="M173.55,221l-.05.47.05.41C173.52,221.66,173.6,221,173.55,221Z"/><path class="cls-1" d="M174.18,213.08s-.1.22-.15.26l0,.47A3.53,3.53,0,0,1,174.18,213.08Z"/><path class="cls-1" d="M174,213.34l-.06-.7C174,213.27,174,213.38,174,213.34Z"/><polygon class="cls-1" points="173.76 216.31 173.89 217.46 173.75 216.09 173.76 216.31"/><polygon class="cls-1" points="174.19 210.41 174.28 210.81 174.15 210.1 174.19 210.41"/><path class="cls-1" d="M174.18,208.64c.07.29.12-.4.17-.09a10.44,10.44,0,0,0-.13-1.26A7.08,7.08,0,0,1,174.18,208.64Z"/><path class="cls-1" d="M174.14,206.66c0,.2.05.4.08.63C174.2,207.08,174.18,206.87,174.14,206.66Z"/><path class="cls-1" d="M174,211.45a1.49,1.49,0,0,0,.11-.55l-.11.28Z"/><path class="cls-1" d="M174,211.19h0v0Z"/><path class="cls-1" d="M174,211.52v-.07A.09.09,0,0,0,174,211.52Z"/><path class="cls-1" d="M173.86,214.48c-.06-.41-.13-1.27-.22-.44C173.71,214.33,173.77,213.86,173.86,214.48Z"/><path class="cls-1" d="M173.85,211.86l0,.75s.07-.15.1,0Z"/><polygon class="cls-1" points="173.82 211.5 173.85 211.86 173.86 211.59 173.82 211.5"/><path class="cls-1" d="M174,207.94a8.6,8.6,0,0,1-.06-1.07c0,.42,0,.86,0,1.28C174,208.21,174,208.39,174,207.94Z"/><path class="cls-1" d="M174,209.52v-.08C174,209.49,174,209.52,174,209.52Z"/><polygon class="cls-1" points="173.99 202.97 173.97 203.03 173.99 203.04 173.99 202.97"/><path class="cls-1" d="M173.93,208.22a2.37,2.37,0,0,0,0,.69v-.76S173.92,208.12,173.93,208.22Z"/><path class="cls-1" d="M174.09,205.58l-.06.55A1.74,1.74,0,0,0,174.09,205.58Z"/><path class="cls-1" d="M174,209.34v0C174.06,209.28,174,209.29,174,209.34Z"/><path class="cls-1" d="M174,209.34a3.87,3.87,0,0,0-.07-.43c0,.2,0,.38,0,.53Z"/><path class="cls-1" d="M173.31,201.78a3.64,3.64,0,0,1,.08,1.62c.07.72.4.25.58-.37,0,0-.08,0-.14-.76-.06.26-.13,1.63-.22,1a3.69,3.69,0,0,1,.09-1.27c-.12.4-.18-1.24-.36-1l.06.86S173.33,201.54,173.31,201.78Z"/><path class="cls-1" d="M174,204.43v.3a10.27,10.27,0,0,1,.13-1c0-.5-.08-.6-.11-.64l0,1.49Z"/><path class="cls-1" d="M174,206.08c-.11-.23-.16-1-.27-.51a5.38,5.38,0,0,0,.13,1.15c0-1.43.06.41.12-.62,0,.28,0,.53,0,.77l.05-.74v0h0c0,.06,0,.08,0,0v0s0,0,0-.07c0-.41,0-.06,0,.07v0h0l-.05-1.43C174,205,174,205.41,174,206.08Z"/><path class="cls-1" d="M173.41,213.28c0-.05,0-.05,0-.05S173.41,213.1,173.41,213.28Z"/><path class="cls-1" d="M173.48,212.69a1.75,1.75,0,0,1,0,.53c0,.29-.05,0-.08,0,0,.2.07.71.13.07l0-.1a5.48,5.48,0,0,1,.19-1.21A2,2,0,0,0,173.48,212.69Z"/><path class="cls-1" d="M173.69,209.34l-.05-1.19-.09.61.06,0C173.58,209.41,173.65,209.26,173.69,209.34Z"/><polygon class="cls-1" points="174.04 202.83 174.16 202.99 174 202.3 174.04 202.83"/><polygon class="cls-1" points="174.03 201.28 174.13 201.34 174.07 200.93 174.03 201.28"/><path class="cls-1" d="M127.8,194l0,.35A2.74,2.74,0,0,0,127.8,194Z"/><path class="cls-1" d="M127.81,191.41l0-.06C127.79,191.47,127.81,191.52,127.81,191.41Z"/><path class="cls-1" d="M159.63,176.36c-.51-.1-1.08-.24-1-.13l.16.11A4.63,4.63,0,0,1,159.63,176.36Z"/><path class="cls-1" d="M133.54,177l.15,0,.35-.11Z"/><path class="cls-1" d="M133.18,177.4l-.67-.07A5.77,5.77,0,0,0,133.18,177.4Z"/><path class="cls-1" d="M127.88,207.82l.11.41C128,207.58,127.94,207.87,127.88,207.82Z"/><path class="cls-1" d="M174,185.39c0-.44.06-.79.07-1.09A3,3,0,0,0,174,185.39Z"/><path class="cls-1" d="M126.65,193q0,.31.06.3C126.69,193,126.67,192.9,126.65,193Z"/><path class="cls-1" d="M174.09,183l0,.24c0,.32,0,.64,0,1A4.22,4.22,0,0,0,174.09,183Z"/><path class="cls-1" d="M154.43,230.23h.12S154.51,230.23,154.43,230.23Z"/><path class="cls-1" d="M169.08,231.35h-.6A4.22,4.22,0,0,0,169.08,231.35Z"/><path class="cls-1" d="M174.09,195c0,.33,0,.05,0,0Z"/><path class="cls-1" d="M173.66,196.64c0-.07,0-.13,0-.13A.27.27,0,0,1,173.66,196.64Z"/><path class="cls-1" d="M173.42,179.74v0C173.4,179.81,173.41,179.8,173.42,179.74Z"/><path class="cls-1" d="M174,195.53l0-.42Z"/><path class="cls-1" d="M174.09,195.47v.28C174.1,195.8,174.11,195.76,174.09,195.47Z"/><path class="cls-1" d="M174.09,194.58c0,.19,0,.36,0,.53,0-.06,0-.09,0-.07Z"/><path class="cls-1" d="M127.7,230.47h0C128,230.43,127.88,230.44,127.7,230.47Z"/><path class="cls-1" d="M151.07,177.47h0Z"/><path class="cls-1" d="M149.89,177.55a2.86,2.86,0,0,1,1.17-.09l-.39-.32Z"/><path class="cls-1" d="M127.82,200l.09-.83c.16,1,.11,1.73.25,1-.34-.12,0-3.23-.37-3.34l.07-.55c0,.16,0,.18,0,.34.17-1.07-.24-.79-.19-2.16,0-.48.08-.81.12-.49l-.09-1.06c0-.31.07-.24.06.07l0-1.62h0c-.05-.23-.13-.76-.17-1,0-.42,0,.2.08.1l-.08-.9c.09-.37.17.38.16,1,.34-.84-.09-.75.11-2.56l0,.85a13.62,13.62,0,0,0,.24-2.17c-.06.23-.3,1.92-.39,1a5.2,5.2,0,0,0,0-1.17c.12,0,.09-.51.08-1.16l.16.05a3.94,3.94,0,0,0-.2-1.05,1.86,1.86,0,0,1,.25-1.12c0-1.24-.2.86-.23-.61a19.36,19.36,0,0,0-.09-3c.06-.72.1.12.14-.13l-.12-.65c0-.15,0-.1.06-.08-.05-.52-.16-.07-.2-.86-.08-.07,0-.33,0-.55l.59.09a4.21,4.21,0,0,0,.94,0c.26,0-.12.1,0,.16,1.44-.13,1.23-.09,2.41-.27l1,.11c-.74-.12.21-.26,1-.38-.26,0-.48-.11-.63-.13l1.32-.08c.16,0,0,.08-.19.14l.24,0c.47.06.23.15-.11.24l-.48-.1c-.32.09-.63.2-.56.29l.43,0c-.08,0-.14,0-.1.07a1.43,1.43,0,0,0,.4-.06l.3.18.07-.07,1.73.11a33.1,33.1,0,0,1,4.28-.51c-.49.13-.1.22-.13.37a18.46,18.46,0,0,0-2.54,0c.53,0,.41.1.28.12l1.81-.14c0,.12.39.09.86.14-.35-.25,1.36-.16,2.1-.24,0,.09-.14.17-1,.15,1,.19,1.29-.29,2.26-.13a1.15,1.15,0,0,0-.42,0c.51-.07,1.77,0,1.47.06h-.22a23,23,0,0,0,4.67-.21.84.84,0,0,1-.28.3l2.61-.71c-.23.18.65.62-.57.72a8.26,8.26,0,0,0,1.52,0c-.24,0-.6-.27-.27-.28a16.06,16.06,0,0,0,1.71.28c-.35,0,0-.32.61-.31-.09,0,0,.28-.16.31l1.4-.28c-.35,0-.07.24.25.32-.15-.06,1.21,0,1.58,0l-.59-.07c1.57.05,1.56-.39,3.12-.37-.19.06-.47.35.33.39a10.56,10.56,0,0,1,3-.8l.26.09,1.06-.1a36.22,36.22,0,0,1-3.53.85,4.16,4.16,0,0,0,1,.09c.31.08-.49.12-.75.12l2.06,0c-.09-.17,1.58-.16,1.5-.3l-2.24.17c-.09-.17,1.3-.48,2.76-.44.37.06-.28.29-.25.35a8,8,0,0,1,1.52-.07l-.62.09a18.71,18.71,0,0,1,2.3-.06c.34,0,1,.22,1.07.12-.55-.19-.66-.78-.29-.93.12,0,1.77.19,2.15.29.56.15-.83.35-.36.48a1.57,1.57,0,0,1,.46-.12c.35,0-.15.14.62.13.16-.17,1,0,.29-.15a2.71,2.71,0,0,1,.5,0,5.48,5.48,0,0,0,0,.7c.11-.28.37.79.42,1.55,0,0-.1.12-.13.2,0,1.55-.09,2.38-.1,3.81,0,.14-.09.83-.16.53a5.17,5.17,0,0,1,.09.85c-.15.85,0-1-.2-.34a10.08,10.08,0,0,1,.19,1.78,6.39,6.39,0,0,0,0-2.09c.22,0,.43,1.1.53,2.6,0,1.2-.14.52-.11.73,0,2.24.37,1.91.21,3.77-.14.74-.27,0-.36.2,0-1,.08-1.5.08-2.16l-.07.82a7.17,7.17,0,0,1,0-1.32c-.12.62,0,3.79-.15,5.53.05.3.09.84.15.58l0-.54c.11-.51.15,1,.2.33a15.51,15.51,0,0,1,.13,2.6l-.16.19a2.65,2.65,0,0,0,0-1c.07.44-.21,1.59,0,2.06l.11-.72a16.71,16.71,0,0,1,.18,2.57c.16-.42,0-.22.17-.87-.23.57,0-2.34-.22-1.44.2-.66.09-1.15.26-2-.05,0-.09.31-.07-.46a1.46,1.46,0,0,1,0-.17v0s0,0,0,0a2.35,2.35,0,0,1-.07.39c-.12-.38-.11-1.6-.17-2s.05.19.11-.06l-.09-.61c.11-.07.19-1.22.25-.14v-1a10.44,10.44,0,0,0,0-1.84c0-.45-.12-1.15,0-.75l-.07-1.52,0,0a40.53,40.53,0,0,1,0-4.79,17.7,17.7,0,0,1,0-1.88l.1-.16c0-.65.1-1.94,0-2.22a3.4,3.4,0,0,0,.12-.81v-.86c0-.37,0-.76,0-1.15l-2.07,0c-.4,0-.76,0-1,0l0,.13c-.79,0-1.54,0-2.51.08l.06.11c-.84.09-2.16-.09-3.49-.08a2.09,2.09,0,0,1,.67,0c-1.59-.26-3.35.18-4.79,0a4.09,4.09,0,0,1-.86,0h-.06l-.5-.06.42.06c-.28,0-.7,0-1.11,0l-.17-.12h-.1c-.4,0-.32.06-.11.15-.2,0-.39,0-.54.07-.33-.19-1.08.07-1.53-.14a15.28,15.28,0,0,0-2.28.28s-.14,0,.08,0a6.45,6.45,0,0,0-1.32,0l-.2-.16-1,.21c-.6-.1-.86-.15-.25-.27-1.46.18-1.18.07-2.42.25l.06-.1a9.1,9.1,0,0,1-1.42.05c-1-.19-4.9,0-7.45-.22.49.3-1.18-.13-1.28.1-.15-.07-.5-.11-.09-.17a20.67,20.67,0,0,0-2.85.07c-.15-.07.28-.1.15-.14a1.66,1.66,0,0,1-.55,0c-.13,0,.19-.06.4-.09-1.33,0-1.46.22-1.56.42a3.29,3.29,0,0,0-1.49.05c-.24-.07-.63-.13.2-.16a15.33,15.33,0,0,0-2.88.06,3.28,3.28,0,0,0-.77,0c-1.09,0-1,0-2.43,0l.4,0a1.32,1.32,0,0,1-.51.1c0,.19,0,.38,0,.62s0,.56,0,.8l0,0c-.14,1.89.07.82-.09,2.68l.12-.1c.25.17-.16,1.65-.06,2.73L127,183a15.92,15.92,0,0,1-.39,2.24c0,.13,0-.2-.05-.38-.16,1.55.15.2.19,1.36-.09.21-.22-.28-.23.5a29.94,29.94,0,0,1,.1,3.32c.07-.23.13-.47.18.07a16.49,16.49,0,0,0,0,3c0,.11,0,.15-.05.15a24.07,24.07,0,0,0,.2,2.42c-.42.59.19,3.92-.19,3.9l0,1.94,0,0a7.83,7.83,0,0,0,.15,2.11c0,.29-.06.08-.08.05a14.7,14.7,0,0,0,.12,3.51l-.12.16c.07.41-.2,2.61-.06,4.38,0,0,0,0-.06-.19.15,2-.35,4.77.1,5.51l.11,1.31c0-1.7.2.26.27-.44,0,.67-.14,1.73-.16.91l0-.13c-.23-.31-.08,2.11-.24,2.07,0,1.67,0,3.33-.07,5l-.05,2.42q0,1.38,0,2.73c.06-.23.12-.43.18-.61v.94h.56c.37,0,.51.14-.68.13a5.65,5.65,0,0,0,1.23,0,2,2,0,0,0,.43-.06c.1,0,.16,0,.16-.05,1.53.08-.59.21-.12.22l.63,0-.14,0a6.13,6.13,0,0,1,1.5-.14c.59,0,.31.11.54.12,0,0,.08,0,.36,0l1.38,0-.55-.15c.61-.07,1.29,0,.66-.16.93.26,5.15.11,5.72.18a20.08,20.08,0,0,1,2.75-.08c-.26,0-.42-.19.49-.17-.33.33,1.65.15,2.38.39-.65-.16,2.57,0,1.55-.26.75,0,0,.12.61.2,1.8-.13,4,.09,6.18.05,0,0-.34-.11.13-.17l1.17.22c.44,0,.41-.25,1.21-.1-.11,0-.28-.09,0-.11,4.35.23,8.88-.15,13.29.26-.6-.09-.2-.1.26-.1-.3,0,0-.11,0-.17l1.84.17c.34-.16,2,0,2.18-.16l-.59,0c.78-.18-1.08-.41-1-.65-.87.21-2.3-.32-3.73,0-.31-.05.27-.08.1-.13a4.93,4.93,0,0,1-1.61.07l.1,0c-2.28,0-3.26-.09-5.82-.16l.19.12a7.67,7.67,0,0,1-.92-.08c-.63.17,1.54,0,1,.21-.73-.25-3.88,0-4.37-.29-.85,0,.25.14-.6.13l-.22-.07-.22.09c-.55,0-.83-.11-.85-.17a4.61,4.61,0,0,0,.52,0c-.72-.09-2,0-2.27,0l.81,0c-2.31.07-5.13,0-7.36.11l.17.06c-1.7.1-1.36-.07-3.23,0h.07a9.68,9.68,0,0,1-1.39.07c.47-.06-.89-.13-.27-.2a8.48,8.48,0,0,0-2.13.29l-.28-.09a5.25,5.25,0,0,1-1.39.15c.77-.08-.59-.15.26-.25-1.95-.21-2.91.2-3.8-.1-.9.26,1.69.15,1.19.2.42.09-.75.19-1.36.17a16,16,0,0,0-2.64-.33l.32,0c-.59-.07-1.15.09-1.87,0-.41.15-.94,0-1.06.19l1.45-.05a18.48,18.48,0,0,1-2.34.19l0-.35a1.87,1.87,0,0,1,.08.25l.28,0a.78.78,0,0,0-.22,0,1.81,1.81,0,0,1,0-.52c.09,0,.11.19.11.41l.49,0a6,6,0,0,0,.88-.06,3.89,3.89,0,0,0-.9,0c-.14,0-.23,0-.09-.09a.61.61,0,0,1-.34.12,3.54,3.54,0,0,1,0-.45,5.13,5.13,0,0,0-.07-1.07l.11.07c0-.16-.07-.51-.07-.82l.16.56c-.13-.87.12-1.67,0-2.5,0,1.74-.15.39-.24,1.13-.15-2.14.32-1.23.26-3.63,0,.33-.07,1.22-.12.71a10.48,10.48,0,0,1,.13-1.33c0-1.59-.12.24-.19-.44.14-.54-.06-.78-.1-1.47h.12c.08-1.8-.25-.48-.16-2.1l.17.69,0-.85.13.17a10.65,10.65,0,0,1,0-2.11c-.08.21-.22-.12-.22-.92.07-.55.11.3.1-.83a1.82,1.82,0,0,1,.06,1c0,.05.07.25.11.3a15,15,0,0,0,0-1.88,2.76,2.76,0,0,1,0,.44l-.16-1.65c0-.25.08-.05.11.15,0-.33-.06-.56-.07-1.05.1.13.2.1.24.79l-.1-1.57c0-.1.11-.8.15-.6.06-.87-.19-2.13-.11-3.28a2.55,2.55,0,0,1,0-.43,22.78,22.78,0,0,0,0-3.32l.17-.73c0-1-.22,1-.28-.69-.06-1.18.15-.44.2-.86a9.17,9.17,0,0,1-.12-2.7C127.83,199.41,127.8,199.69,127.82,200Zm-.06-12.4a2.77,2.77,0,0,1,0,.9A1.57,1.57,0,0,1,127.76,187.63Zm7.61-10.44a2.31,2.31,0,0,1-.77,0A5.25,5.25,0,0,1,135.37,177.19ZM174,191.43v0C174,190.87,174,191.06,174,191.43Zm-.05,1.12c0,.11,0,.1.05,0a2.36,2.36,0,0,1,0-.61A1.35,1.35,0,0,0,174,192.55ZM131,231.29l-.21,0C131.28,231.22,131.14,231.25,131,231.29Z"/><path class="cls-1" d="M133.23,177.35c-.07,0-.09,0-.1-.07S133,177.33,133.23,177.35Z"/><path class="cls-1" d="M127.86,207.74v0l0,0Z"/><path class="cls-1" d="M171.74,177.5a2.09,2.09,0,0,1-.44-.07S171.39,177.49,171.74,177.5Z"/><path class="cls-1" d="M174.14,198.44l0-.71a4.32,4.32,0,0,1,0,.64S174.14,198.22,174.14,198.44Z"/><path class="cls-1" d="M173.38,204.63c0,.1,0,.22,0,.32l0,0C173.45,204.48,173.41,204.17,173.38,204.63Z"/><path class="cls-1" d="M173.74,199.1c-.1.06-.07.51-.05,1V200C173.83,200.16,173.78,199.63,173.74,199.1Z"/><path class="cls-1" d="M173.69,200.22c0,.15,0,.31,0,.46S173.7,200.49,173.69,200.22Z"/><path class="cls-1" d="M174,194c0,.23.13.15.09.28C174.23,194.5,174,192.66,174,194Z"/><polygon class="cls-1" points="173.4 199.5 173.53 199.33 173.43 199.05 173.4 199.5"/><path class="cls-1" d="M173.5,195.56l0,.8s0,.09,0,.21A6.48,6.48,0,0,0,173.5,195.56Z"/><path class="cls-1" d="M173.51,196.57a5.94,5.94,0,0,0,0,.65C173.53,197.08,173.52,196.78,173.51,196.57Z"/><polygon class="cls-1" points="173.37 198.41 173.39 198.18 173.4 197.62 173.37 198.41"/><path class="cls-1" d="M173.54,187l0-.87c0-.09-.07.14,0,.47S173.5,187.12,173.54,187Z"/><path class="cls-1" d="M173.19,189.62a1.32,1.32,0,0,1,.1-.38l-.15,0Z"/><path class="cls-1" d="M173.16,187.08c0-.09-.12-1.26-.11-.16C173.09,187,173.13,187.88,173.16,187.08Z"/><polygon class="cls-1" points="170.4 177.07 170.62 177.07 170.59 176.81 170.4 177.07"/><path class="cls-1" d="M158.83,177.65c1,.07.25-.15,1.18-.07.24-.06-.76-.07-.51-.12C158.88,177.52,158.55,177.49,158.83,177.65Z"/><path class="cls-1" d="M159.5,177.46l.32,0Z"/><polygon class="cls-1" points="171.51 231.5 172.18 231.55 171.75 231.46 171.51 231.5"/><path class="cls-1" d="M172.79,231.31l.15.16.4-.15A2.48,2.48,0,0,1,172.79,231.31Z"/><path class="cls-1" d="M128.09,185.79l0,0a2.11,2.11,0,0,0-.05.57Z"/><polygon class="cls-1" points="127.95 194.79 127.96 194.63 127.81 194.92 127.95 194.79"/><path class="cls-1" d="M128.13,202.34l0-1C128.13,202,127.94,202.42,128.13,202.34Z"/><rect class="cls-1" x="128.94" y="194.78" width="53.88" height="46.21" transform="translate(-62.3 373.34) rotate(-89.89)"/><path class="cls-2" d="M145,196.69h.56q5.88,0,8.9,10.34a23.77,23.77,0,0,1,.27,3.35q0,8.55-7.56,17.29l-2.79.83a6.81,6.81,0,0,1-.56-1.95h.28l-.28-.56q-.26-7.35-.25-12.29v-.83a.24.24,0,0,1,.28-.28.24.24,0,0,0-.28-.28,8.15,8.15,0,0,1,.29-2c-.19-2.5-.27-4.64-.27-6.41v-.56a.25.25,0,0,1,.28-.28l-.28-.55v-1.12Q143.76,196.69,145,196.69Zm.83,1.4v.28a8.07,8.07,0,0,0,.28,1.95q-.3,5.13-.6,17.85.27,4.54.27,8.1a19.55,19.55,0,0,0,7-15.62v-2.79q-.86-5.1-5.84-9.49Z"/></g><g id="Layer_3" data-name="Layer 3"><path d="M76.5,149.68C66.85,145.6,58.29,137.52,52,129.36,37.06,109.93,31.79,82,38.15,58.36c5.28-19.63,19.17-35.42,36.1-46.12A95.52,95.52,0,0,1,89.5,4.31a13.82,13.82,0,0,1,3.7-1.14c29.34-6.36,61,3.16,79.53,27.34,10.61,13.85,18.43,32.25,19.36,49.9A75.85,75.85,0,0,1,183.6,119a87.54,87.54,0,0,1-7.4,11.87,16.45,16.45,0,0,0-1.75,2.28c.67-1.41-2,2.75-.31,1.61-.1.06-.27,0-.36.05-.93.61-3.34.51-4.4.67L78.15,149.27l-2.58.39c-1.24.19-2.53,1.55-.5,1.24l90.17-13.66c2.76-.42,7.35-.21,9.81-1.79,2.65-1.71,4.81-6.06,6.56-8.7a84.59,84.59,0,0,0,6.63-11.92,76.73,76.73,0,0,0,6.17-21.29c2.53-18.72-2.88-37.14-12-53.43C172.48,22.35,156.7,8.84,137,3.25a92.28,92.28,0,0,0-39.3-2,52.73,52.73,0,0,0-16,5.35C66,14.4,51.62,26.13,42.63,41.39c-20.94,35.53-8,89,29.3,108.42.72.38,1.46.76,2.21,1.08S77.48,150.09,76.5,149.68Z"/><path d="M81.4,169.34a10.6,10.6,0,0,1-10.47-9.06,10.61,10.61,0,0,1,8.95-12L171.33,135a10.58,10.58,0,1,1,3,20.94L82.93,169.23A11.48,11.48,0,0,1,81.4,169.34Zm91.47-33.49a9.3,9.3,0,0,0-1.39.11L80,149.27a9.58,9.58,0,0,0,2.76,19l91.46-13.32h0a9.59,9.59,0,0,0-1.37-19.07Z"/><path d="M96.19,93.87c-4.91-17-.17-38.6,12.67-50.95,11-10.62,27.19-14.58,42.12-12.28a87.72,87.72,0,0,1,17.08,4.5c4.66,1.74,10.24,4,12.94,8.48,3.37,5.54,5.44,12.71,7.3,18.86,2.64,8.74,4.43,18.12,3.33,27.27-2.52,20.87-25.12,35.93-45,37.05-22.3,1.26-42.26-12.48-50.44-32.93-.32-.81-3.17.09-2.9.78a52.8,52.8,0,0,0,47.62,33.53A55.48,55.48,0,0,0,168,122c9.17-4.77,19.36-12.71,23.71-22.31,7.79-17.21.65-39.7-7.23-55.72-4.56-9.25-18.89-12.07-28-14a58.87,58.87,0,0,0-36.73,3.92C97.53,44.16,86.55,71.24,93.29,94.65,93.52,95.43,96.41,94.64,96.19,93.87Z"/><path d="M93.22,173.35c-18.75,2.51-37.31,13.42-51.7,25.06a148.85,148.85,0,0,0-19.9,19.47c-6.19,7.29-13.18,15.63-17.17,24.35A53.84,53.84,0,0,0,0,265.15c.33,12.66,7.49,22.15,20,25.12a32,32,0,0,0,27.81-6.7c7.65-6.49,11-16.89,17.42-24.55a83.85,83.85,0,0,1,19.46-17c6.44-4.08,13.75-6,20.23-9.8,9.35-5.42,18.55-15.62,17.93-27-.49-9.16-6.67-15.58-12.58-21.91-4.28-4.58-10.11-10.87-17-9.91-1.5.21-2.31,2.16-.32,1.88,6.18-.86,11.63,6,15.4,10.06,5.7,6.1,11.62,12.47,11.66,21.38,0,10.21-8.12,19.17-16.46,24.15-4.76,2.84-11.38,4.69-16.73,7.72a88.42,88.42,0,0,0-18,13.4,77.18,77.18,0,0,0-14.95,19.95c-5.5,10.59-15.92,18.49-28.32,17.29S4.37,279.66,3.1,267.42a51.78,51.78,0,0,1,3.75-24.11c2.6-6.27,7.37-12.2,11.43-17.6a152.94,152.94,0,0,1,18.5-20.48c15-13.78,35.38-27.22,56.12-30C94.41,175,95.21,173.08,93.22,173.35Z"/><path d="M169.62,156c10.52-2.52,21.85-9,27.15-18.67a25.42,25.42,0,0,0,3.06-12c0-4.78-1.8-9.48-.43-14.22,2.3-8,11.17-10,18.49-10.52s16.06-.1,23.12,2.08c18.54,5.74,15,28.94,10.57,43.2-4.75,15.27-11.73,31.35-22.62,43.31-9.79,10.75-22,16.56-35.5,21.06l1.63.27a149.52,149.52,0,0,0-5.43-24.75c-3.46-11.31-8.48-24.62-19.06-31.13-.74-.45-3.43.66-2.32,1.34,10.86,6.68,15.74,21,19.09,32.63a150.4,150.4,0,0,1,4.82,22.69c.07.57,1.35.37,1.63.27,10-3.32,19.53-7,28-13.39,11.34-8.59,19-20.43,25-33.15,7.29-15.41,21.14-47.71,2.3-60.83-6-4.2-13.33-4.51-20.23-5-11.73-.86-32.33.13-33,16-.25,6,1.74,11.48,0,17.53a27.26,27.26,0,0,1-9.43,13.46,44.78,44.78,0,0,1-17.27,8.5C167.52,155.05,167.88,156.37,169.62,156Z"/><path d="M80.48,243l2.6,16.87c.86,5.59.84,12.42,2.73,17.76,1.14,3.24,4.38,6.4,6.7,8.79,5.28,5.44,11.82,9.7,19.28,11.38,8.94,2,16.06-.86,24.47-3.22,6.31-1.76,13-2.69,19.37-4,9.09-1.89,18.21-2.27,25.65-8.1C194.75,272,203.87,253.37,201.53,236c-.52-3.85-1.77-7.74-2.64-11.52l-5.54-24c-2.29-9.91-3.36-20.63-8.69-29.46A68.74,68.74,0,0,0,173.31,157c-1.84-1.76-2.47-2.6-4.66-2.61-4.23,0-8.82,1.25-13,1.84L107.6,163l-18.8,2.66c-2.28.32-5.4.21-7.32,1.56-3.39,2.41-6.17,7.87-7.73,11.58-.64,1.53,2.27,1.55,2.78.34A34.56,34.56,0,0,1,81.39,171a12.34,12.34,0,0,0,1.86-2.19c.34-.9,1.84-.82-.57-.18a18.3,18.3,0,0,1,2.34-.33l14.25-2,44.91-6.36,18.16-2.57a32.63,32.63,0,0,1,5.27-.75c2.9.09,1.24-.23,4.53,3.09,5.05,5.11,10.71,11.82,13.05,18.8,1.26,3.73,1.82,7.86,2.7,11.69l9.6,41.62c3.44,14.9-1.22,31.23-11.2,42.75A42.67,42.67,0,0,1,175,284.21c-1.23.67-.26.23-1.3.53-2.2.63-4.53.94-6.76,1.4l-22.1,4.59c-5.49,1.14-10.19,2.56-15.48,4.2-10.79,3.34-21.65.76-30.31-6.24-3.54-2.87-8.61-7.41-10.35-11.87-1.53-3.9-1.77-11.83-2.53-16.71l-2.74-17.85c-.21-1.35-3.12-.62-2.9.78Z"/><path d="M74.2,179.57c.63,0,3.29-1.2,1.88-1.2-.63,0-3.29,1.2-1.88,1.2Z"/><path d="M198.92,237c23.54,14.93,43.62,43.19,34.8,71.89-.11.35.29.62.58.67,5.32.94,11.19,4.17,13,9.55,2.65,8-3.65,21.83-11.59,25.14-2.8,1.17-6.22,1.37-9.17,2l-22.94,4.52c-5.68,1.12-11.39,2.12-17,3.36a21.56,21.56,0,0,1-5.17.78c-14.93-.41-11.85-25.12-7.9-33.69l5.28-11.42c.83-1.81,2.2-3.85,2.61-5.82,1.43-6.7-1.84-15.92-8.4-18.5l-.55,1.39c19.72-8.76,31-29.82,29.11-50.94-.1-1-3-.4-2.9.78,1.82,19.95-8.61,40.5-27.39,48.84-.37.17-1.44,1.05-.55,1.4,6.2,2.44,8.2,10,7.83,16.14-.18,2.86-2.29,6.16-3.64,9.1-1.74,3.77-3.89,7.55-5.29,11.46a44.93,44.93,0,0,0-1.48,21.64c1.29,6.71,5.75,11.4,12.76,11.39,3.37,0,6.94-1.13,10.23-1.78l33.07-6.52c5.32-1,11.32-1.28,15.81-4.63,8.52-6.34,15.81-22.88,6.23-31.13a20.24,20.24,0,0,0-5.4-3.22c-.9-.38-3.69-.7-4.27-1.36-.27-.31.37-.9.85-2a22.83,22.83,0,0,0,1.15-5.68,47.87,47.87,0,0,0,.29-10.5c-1.81-22.32-19.26-42.64-37.61-54.28C200.35,235,197.7,236.25,198.92,237Z"/><path d="M84.66,270.24a36.71,36.71,0,0,0,10.11,18.7c11.08,10.89,27.11,9.7,40.83,5.28l-2-.18a225.24,225.24,0,0,1-18.11,34c-5.52,8.57-11.74,17-19.43,23.78-3.69,3.26-7.88,6.28-12.59,7.86a66.82,66.82,0,0,1-9.12,1.91c-1.39.25-4.39.23-5.65,1-1.66,1.05-.47.91.63.91a15.78,15.78,0,0,0,3.49-.81c1.24-.32,3.67-.57,4.42-1.8a.22.22,0,0,0-.08-.28c-2.9-3.49-11.42,8.74-12.31,9.87-1.48,1.87-4.15,4.31-4.9,6.6-1,3,0,8,0,11.21,0,3,.09,3.69-1.71,6-2.8,3.66-6.73,7.84-11.5,8.47-10.1,1.34-15.43-11.27-19.31-18.72l-12.6-24.23c-1.8-3.46-2.9-5.6-3-9.56-.21-9.68,5.63-17.31,14.72-20.52,3.22-1.13,6.72-1.08,9.63-2.86,2.36-1.43,4.58-3.15,6.81-4.77a203.54,203.54,0,0,0,26.67-22.81c7.84-8.13,16.27-18.14,17.83-29.74.11-.85-2.77-.32-2.87.46-1.63,12.09-10.59,22.33-18.85,30.68A206.13,206.13,0,0,1,39,323.26c-1.68,1.21-3.78,3.28-5.76,4-1.52.54-4.35.67-6.27,1.27a33.94,33.94,0,0,0-7.2,3.16A21.61,21.61,0,0,0,9,351.36c.14,4.62,2.05,7.52,4.17,11.61L26.7,389c3.94,7.58,9.9,16.53,19.61,15.14a20.14,20.14,0,0,0,10.33-5.21c2-1.75,5.3-4.68,6.15-7.33,1-3.22.1-8.12.1-11.5a15.42,15.42,0,0,1,.19-3.85c.8-1.78,2.67-3.55,3.86-5.08,1.88-2.42,3.78-4.84,5.86-7.1.39-.42,2.45-2,2.54-2.46,0-.17-1-.3-1.62-.23a22.57,22.57,0,0,0-6.85,1.74c-.81.42-.67,1,.25.93,8-.4,17.17-2.5,24.08-6.67,9.09-5.49,16.21-14,22.33-22.58a215.17,215.17,0,0,0,23-41.19c.32-.75-1.77-.24-1.95-.18-14.1,4.53-29.65,4-39.54-8.22a36.63,36.63,0,0,1-7.46-15.72C87.43,268.74,84.51,269.41,84.66,270.24Z"/><circle class="cls-3" cx="65.52" cy="93.71" r="13.35"/><path class="cls-3" d="M54.73,312.06c.8-.68,21.27,43.52,42.51,39.87l13.58-15.2s-40.71-32.4-40.67-39.17Z"/><path class="cls-3" d="M179.6,297.56s32.42-12.24,41.29-42.84c0,0,13.15,15.92,14.86,26.42,0,0-33.63,37.68-62.58,37.69C173.17,318.83,178.6,307.08,179.6,297.56Z"/><path class="cls-3" d="M34.23,327.42s-27.49,0-23.15,28.35l18.67,35.89s16,27.43,31.69,0L58.7,375.87Z"/><path class="cls-3" d="M169.44,330.34l65.74-21.59s16.21,2.88,13.44,18.67-11.23,16.93-11.23,16.93L182,355.75S168.64,354.26,169,342.3Z"/><path class="cls-3" d="M24.91,215.8s7.81,30.23,38.19,44l12-12.13L41.88,199.43S23.23,210.81,24.91,215.8Z"/><path class="cls-3" d="M191.12,143.17s39.2,14.33,40.76,44.19l15.24-25.88a62.2,62.2,0,0,0-47-33.94Z"/><path class="cls-3" d="M150.29,43.3s24.18,10.59,26.17,32.18C176.46,75.48,175.9,40.64,150.29,43.3Z"/><path d="M449.62,147.54c-2.95.16-6.21,1.77-6.6,5a5.14,5.14,0,0,0,5.26,5.6c2.81.05,6-1.6,6.68-4.54.72-3.27-1.88-5.91-5-6.08a2.79,2.79,0,0,0-2.05.55c-.31.36-.47.83.23.86a4.15,4.15,0,0,1,3.82,2.83c.59,1.7,0,4.28-1.92,4.78-4.29,1.11-5.84-7.36-1.58-7.59.5,0,1.71-.19,1.92-.75S450.19,147.51,449.62,147.54Z"/><path d="M449.22,175c-3.07.17-6.17,2.3-6.24,5.61a5.37,5.37,0,0,0,5.68,5.27c2.93,0,6-2,6.39-5.11.38-3.34-2.36-5.61-5.46-5.78-1.15-.06-3.07,1.6-1.12,1.7a3.92,3.92,0,0,1,3.6,3.15c.36,1.78-.58,4.43-2.75,4.3-4-.22-4.79-7.23-.48-7.46C450.3,176.6,451.22,174.9,449.22,175Z"/><path d="M456.38,330.08,414.53,281,403.9,268.52c-1.56-1.84-3.62-3.69-4.89-5.74-1.89-3.06-2.79-5.66-6.28-7.51-4.48-2.4-10-2.1-14.89-2a17.36,17.36,0,0,0-13.52,6.21c-15.31,17.43-30.12,35.33-45.17,53-5,5.91-10.35,11.68-15.16,17.78-9.54,12.09,2.91,29.75,17.55,26.43,5-1.14,8.1-4.5,11.25-8.19L346,333l22.19-26-2.67-.28v18.17c0,5.73-1.15,13,2.46,17.89,4.38,6,13.25,6.16,20,5.15,7.63-1.16,11.62-7.47,11.67-14.75.05-7,0-13.95,0-20.93l-2.79.75,30.52,35.8c5.12,6,11.49,10.26,19.77,7.32,10.69-3.8,16.68-16.44,9.29-26-.77-1-3.54.11-2.66,1.25a13.61,13.61,0,0,1-1.46,18.85c-5.14,4.77-12.07,6.69-18.06,1.95-3.8-3-6.79-7.63-9.9-11.28l-24.84-29.14c-.62-.73-2.8-.39-2.8.75v19.68c0,3.8-.09,7.51-2.84,10.53-3.49,3.85-9.49,3.67-14.33,3.35-11.65-.78-11.07-11.41-11.07-20V306.44c0-1.34-2.09-1-2.67-.28-12.35,14.49-24.48,29.2-37.06,43.48-5.31,6-12.69,6.94-19,1.73s-8.79-13.38-3.23-20.44c4.43-5.62,9.33-10.93,14-16.38l44.14-51.78c2-2.32,3.86-4.91,6.66-6.28,3.07-1.51,5.56-1,8.71-.86,3.81.15,7.6-.49,11.13,1.56,3,1.75,3.58,4.42,5.39,7,4.26,6,9.77,11.46,14.54,17.06l42.72,50.11C454.54,332.29,457.3,331.16,456.38,330.08Z"/><path d="M460.56,213.74H352.31c-14.83,0-29.76.49-44.59,0-9.81-.32-11.69-8.15-11.69-16v-29c0-17.44-.85-35.12,0-52.55.5-10.34,8.72-11,16.43-11H457.1c7.8,0,13.37,4.5,13.46,12.71s0,16.17,0,24.24c0,19.81.28,39.65,0,59.45-.09,6.32-3.36,11.76-10.37,12.15-1.5.08-2.35,1.87-.35,1.76,6.64-.36,12.75-4.81,13.56-11.74a53.07,53.07,0,0,0,.07-6.05V130c0-5.9,1.43-14.76-1.65-20.14-3.71-6.47-10.25-6.46-16.66-6.46H356.48c-16.22,0-32.46-.27-48.68,0-8.26.13-14.56,5.51-14.68,14s0,16.81,0,25.22c0,19.93-.73,40,0,59.93.62,17.06,23.08,13,34.5,13H459.47C460.66,215.54,462.51,213.74,460.56,213.74Z"/><rect class="cls-3" x="331.79" y="148.26" width="75.87" height="36.78" rx="6.26" ry="6.26"/><rect class="cls-3" x="354.55" y="194.23" width="99.08" height="9.19" rx="4.6" ry="4.6"/><path d="M339.29,202.69a4.09,4.09,0,0,1-3.63-3.27c-.36-1.64.44-4.35,2.46-4.45,1.67-.09,3.15,1.55,3.56,3,.46,1.68-.25,4.57-2.39,4.69-.51,0-1.71.18-1.92.75s.17.75.75.72c3.14-.17,6.54-2,6.62-5.54a5.21,5.21,0,0,0-5.45-5.13c-3.14,0-6.56,2.14-6.63,5.54a5.22,5.22,0,0,0,5.46,5.13C339.1,204.16,341.23,202.69,339.29,202.69Z"/><path d="M354.65,103.47c-11.45,0-22-.91-30.13-10.15a30.2,30.2,0,0,1-2-37.15c7.62-10.64,18.89-12.4,31-12.17a30.27,30.27,0,0,1,29.3,25.31c2.78,17.38-10.51,33.76-28.18,34.16-1.11,0-3.06,1.73-1.12,1.68,14.82-.33,28.43-10,31.82-24.79,3.56-15.49-5.7-31.48-20.72-36.44-10.71-3.53-25.78-2.6-35.39,3.32-13,8-18.76,24.6-12.75,38.75a31.62,31.62,0,0,0,17.83,17.11c6.23,2.36,12.68,2.05,19.21,2.05C354.65,105.15,356.6,103.47,354.65,103.47Z"/><path d="M423.83,103.61c-11.47,0-22-1-30.16-10.24a30.4,30.4,0,0,1-2.05-37.28c7.54-10.68,18.9-12.49,31-12.23A30.47,30.47,0,0,1,452,69.31c2.77,17.38-10.41,33.9-28.15,34.3-.93,0-3.12,1.45-1.19,1.41,14.76-.34,28.46-9.92,31.85-24.7A31.29,31.29,0,0,0,433.79,44c-10.73-3.49-25.73-2.5-35.37,3.38-13,7.91-18.79,24.48-12.78,38.61a31.43,31.43,0,0,0,17.8,17c6.22,2.33,12.69,2,19.2,2C423.58,105,425.76,103.61,423.83,103.61Z"/><path d="M485.52,122.92l44.15-31.84-2.6.17v127l2.79-1-41.53-29c-1.39-1-2.24-1.32-2.52-2.37-.68-2.54,0-6.19,0-8.79V122.31c0-.85-2.9-.32-2.9.78v52.17c0,3.48-1.5,10.47,1,13,2.29,2.29,5.75,4,8.4,5.86l13.56,9.47,21.26,14.84c.72.51,2.79.16,2.79-.94v-127c0-1-2.29,0-2.6.17L483.2,122.48C481.9,123.42,484.79,123.44,485.52,122.92Z"/><path d="M332.68,214.9l.45,15.15c0,.33.67.38.87.38l87.65.21,12.62,0c.65,0,2-.31,2-1.16l0-15.14c0-.34-.67-.38-.87-.38l-88.23-.22-12.53,0c-1,0-3.1,1.53-1.15,1.53l97.45.24a16,16,0,0,1,2.68,0c1,.18.05-.69-.25.58-1,4.28,0,9.77,0,14.19l2-1.16-97.13-.24a16.31,16.31,0,0,1-2.52,0c-1-.19,0,.71.22-.59.83-4.3-.29-9.77-.43-14.18C335.55,213.31,332.64,213.85,332.68,214.9Z"/><path d="M350.88,229.37v24.32c0,.16.45.18.5.18h64.36c.49,0,2.39-.23,2.39-1V228.59c0-.16-.45-.18-.5-.18H353.27c-.59,0-3.27,1.14-1.89,1.14H409c1.74,0,4.22-.45,5.92,0,1,.25.41,0,.33-.13.29.47,0,2,0,2.55v21.72l2.4-1H360c-1.74,0-4.22.45-5.93,0-1-.25-.4,0-.33.13-.28-.47,0-2,0-2.55V228.59C353.77,228.18,350.88,228.57,350.88,229.37Z"/><path d="M485.29,190.06c-3.47,0-8.21.92-11.52,0-1.29-.35,0,.73-.31-.41a9.49,9.49,0,0,1,0-2.26V120.06l-2.37,1c3.46,0,8.2-.91,11.51,0,1.29.36,0-.72.31.41a9,9,0,0,1,0,2.26v67.33c0,.54,2.9.11,2.9-.78V120.06c0-.17-.44-.23-.52-.23H473c-.57,0-2.38.19-2.38,1v70.24c0,.18.43.24.52.24h12.34C484.09,191.32,486.73,190.06,485.29,190.06Z"/><path d="M352,97.56c-18.3,0-18.82-32.59-.29-32.36s18.74,31.53.29,32.36c-1.59.08-2.27,2.09-.29,2,10.63-.48,16.84-8.54,16.76-18.74-.08-9.54-6.3-17.7-16.47-17.62-22,.19-22.55,36.36-.29,36.36C353.27,99.56,353.93,97.56,352,97.56Z"/><path d="M419.36,97.47c-18.31,0-18.73-32.35-.24-32.18s18.64,31.35.24,32.18c-1.66.07-2.21,2.27-.24,2.18,10.66-.48,16.82-8.61,16.74-18.8-.08-9.55-6.3-17.81-16.5-17.74-22,.14-22.49,36.54-.24,36.54C420.8,99.65,421.33,97.47,419.36,97.47Z"/></g></g></svg>