<svg xmlns="http://www.w3.org/2000/svg" viewBox="0 0 451.19 171.54"><title>daniela</title><g id="Layer_2" data-name="Layer 2"><g id="Layer_3" data-name="Layer 3"><path d="M6.91,14.89l2.74-.05q28.85-.52,44.69,49.81A118.74,118.74,0,0,1,56,81q.77,41.94-35.38,85.54L7,170.93Q4.17,164,4.12,161.4l1.37,0-1.42-2.71q-2-36-2.47-60.22l-.07-4.11A1.21,1.21,0,0,1,2.87,93a1.21,1.21,0,0,0-1.39-1.34A39.89,39.89,0,0,1,2.67,82Q1,63.6.73,50.58l0-2.74A1.2,1.2,0,0,1,2,46.45L.6,43.74.5,38.26Q1,15,6.91,14.89Zm4.23,6.76,0,1.37a40.14,40.14,0,0,0,1.54,9.55q-.92,25.18-1.13,87.59,1.77,22.28,2.09,39.7,33.66-29.78,32.79-77.28L46.21,68.9q-4.68-25-29.57-46Z"/><path d="M6.74,171.54l-.17-.42c-1.95-4.71-2.92-7.89-2.95-9.71v-.5l1.06,0-1.1-2.2c-1.34-23.9-2.18-44.16-2.47-60.23L1,94.35A1.66,1.66,0,0,1,2.3,92.52c-.11-.3-.35-.4-.82-.41H1v-.5A41.18,41.18,0,0,1,2.16,82C1,69.78.38,59.22.23,50.58L.18,47.85a1.87,1.87,0,0,1,.46-1.39,1.64,1.64,0,0,1,.62-.39L.1,43.86,0,38.27c.32-16,2.58-23.8,6.9-23.88l2.74-.05h.6c19.1,0,34.1,16.87,44.58,50.17A120.07,120.07,0,0,1,56.51,81C57,109,45.08,137.86,21,166.89l-.09.11Zm-2.09-9.65a36,36,0,0,0,2.67,8.42l13-4.17C44.19,137.33,56,108.71,55.51,81a120.66,120.66,0,0,0-1.66-16.32C43.42,31.63,28.6,15,9.66,15.34l-2.74.05c-2.49,0-5.54,4.05-5.92,22.88l.1,5.34,1.74,3.32L2,47a.92.92,0,0,0-.67.2.92.92,0,0,0-.18.68l.05,2.74C1.38,59.2,2,69.76,3.17,82v.16a40.8,40.8,0,0,0-1.19,9,1.66,1.66,0,0,1,1.4,1.79v.5h-.5c-.64,0-.87.25-.85.89l.07,4.1c.29,16,1.12,36.25,2.46,60.09l1.75,3.33Zm8.54-.94,0-1.08c-.21-11.55-.92-24.9-2.09-39.67.15-41.41.53-70.86,1.13-87.57A40.87,40.87,0,0,1,10.67,23l0-2,6.24,1.44.09.08c16.61,14,26.62,29.59,29.74,46.27L47,82.57c.58,31.68-10.51,57.81-33,77.66ZM11.65,22.28l0,.73a40.07,40.07,0,0,0,1.52,9.43l0,.07v.08c-.6,16.69-1,46.15-1.13,87.57,1.14,14.29,1.83,27.28,2.07,38.6C35.83,139.2,46.53,113.58,46,82.59l-.25-13.68c-3.07-16.33-12.93-31.68-29.3-45.53Z"/><path d="M111.12,14.35l1.37,0q9.39-.18,17.91,81.76l1,54.78q-.63,17.79-5.14,17.88l-1.37,0c-1.83,0-2.76-1.32-2.81-4.05q-.24-12.79.26-60.27L120.8,94.9l1.37,0a9.5,9.5,0,0,1-1.44-4.07,189.25,189.25,0,0,0-3.31-31.41l-9.58.17q-5.94.12-20,103.05l-4,2.81-2.74.05a9.86,9.86,0,0,0-1.44-4.08A863.3,863.3,0,0,1,103.19,29.55Q107.78,14.42,111.12,14.35Zm.4,21.89q-3.84,14.4-3.81,16.48l8.21-.15q0-2.61-3-16.36Z"/><path d="M124.82,169.27a2.75,2.75,0,0,1-2.41-1.2,6,6,0,0,1-.83-3.34c-.16-8.49-.07-28.77.26-60.28l-1.62-10,1.13,0a8.67,8.67,0,0,1-1.12-3.59A188.37,188.37,0,0,0,117,59.9l-9.15.16c-2.06,0-7.34,13.42-19.52,102.62l0,.21-4.36,3-3.39.07v-.5a9.28,9.28,0,0,0-1.38-3.85l-.07-.14v-.15A868,868,0,0,1,102.7,29.42c4.23-13.9,6.82-15.54,8.41-15.57l1.37,0h0c6.61,0,12.63,26.89,18.38,82.21l1,54.82c-.44,12.49-2.23,18.33-5.63,18.39l-1.37,0Zm-3.43-73.88,1.45,9c-.33,31.59-.42,51.86-.26,60.34a5.14,5.14,0,0,0,.65,2.79,1.91,1.91,0,0,0,1.65.77l1.37,0c1.84,0,4.15-3.08,4.65-17.4l-1-54.75c-7-67.12-13.3-81.27-17.37-81.27h0l-1.37,0c-1.11,0-3.55,2-7.46,14.84a867.31,867.31,0,0,0-23.56,131.6A11.3,11.3,0,0,1,81.5,165l2.12,0,3.75-2.6C101.46,59.19,106.09,59.1,107.83,59.06l10-.18.08.41a190.44,190.44,0,0,1,3.32,31.5,9.25,9.25,0,0,0,1.38,3.84l.39.73ZM107.22,53.23v-.5c0-1.45,1.23-6.88,3.83-16.62l.09-.37,2.16,0,.08.4c2,9.29,3,14.67,3,16.46v.5Zm4.68-16.5c-2.23,8.38-3.46,13.58-3.66,15.48l7.15-.13c-.17-2.09-1.15-7.25-2.91-15.36Z"/><path d="M192.06.56l2.73-.05q2.94,10.89,3.06,17.73,2.49,135.47-4.36,135.59a9.77,9.77,0,0,1-4.08,1.45q-5.19-4-17.56-62.68-2.32,0-5.85-20.42l-1.37,0L165,92.72a1.21,1.21,0,0,1-1.34,1.4,1.2,1.2,0,0,0,1.39,1.34q-1.08,16.14-1.61,61.66l-2.71,1.42-5.47.1q.82-29.46.56-43.86L154.08,19q.69-8.22,4-8.29,5.7-.09,20.52,74.89,8.72,27.19,8.86,35.41l1.37,0,.56-119Z"/><path d="M154.75,159.15l0-.53c.55-19.55.74-34.3.56-43.83l-1.75-95.74c.49-5.89,1.94-8.75,4.45-8.8h0c2.64,0,7.69,7.91,21,75.29,5.61,17.51,8.59,29.3,8.85,35h.39l.56-118.86L191.93.06,195.17,0l.11.38c1.95,7.26,3,13.27,3.07,17.85,2.44,133.26-2.63,136-4.73,136.1a9.83,9.83,0,0,1-4.2,1.45h-.17l-.14-.11c-3.58-2.76-9.36-23.25-17.68-62.62-1-.32-2.79-2.73-5.85-20.36h-.44l.37,20a1.67,1.67,0,0,1-1.28,1.84c.11.3.38.41.82.41h.54l0,.54c-.71,10.7-1.26,31.43-1.61,61.64v.29L160.87,159Zm3.31-147.9h0c-2.33.05-3.17,4.28-3.47,7.83l1.75,95.7c.18,9.45,0,24-.55,43.35l4.83-.09,2.34-1.22c.35-29.61.88-50.09,1.58-60.9a1.65,1.65,0,0,1-1.36-1.79v-.5h.5c.64,0,.86-.25.85-.89l-.39-21,2.3,0,.07.43c3.28,19,5,20,5.35,20h.41l.09.41c8.07,38.29,13.88,59.23,17.24,62.27a10.09,10.09,0,0,0,3.67-1.37l.11-.06h.12c.69,0,3-2.46,4-33.47.73-22.49.68-56.68-.15-101.61A75.9,75.9,0,0,0,194.41,1l-2.23,0-2.33,1.23-.57,119.23-2.35,0v-.5c-.1-5.4-3.07-17.27-8.83-35.27C165.27,21,160,11.25,158.06,11.25Z"/><path d="M228.86,16.3q31.72.79,32.85.77l1.42,2.71.08,4.1-16.42.3q4.16,77.32,4.34,87.49.23,12.61-1.91,45.25l9.57-.17c1.83.24,2.76,1.13,2.79,2.68l.05,2.74q0,2.73-4.05,2.81-24,1.8-28.7,1.89l-1.42-2.71,0-1.37q1.29-4.12,8.14-4.25l4.1-.08-1.35-73.92Q238,64.86,236,31.22c.89-1.52,1.3-3.81,1.25-6.86q-12.34-1.44-12.39-3.88l0-1.37C224.77,17.29,226.13,16.35,228.86,16.3Z"/><path d="M228.58,167.38,227,164.29l0-1.57,0-.08c.93-3,3.82-4.51,8.6-4.6l3.6-.07-1.34-73.42c-.24-13-1-31-2.34-53.3V31.1l.07-.13a12.56,12.56,0,0,0,1.18-6.17c-10.92-1.31-12.36-3-12.39-4.31l0-1.37c0-1.47.74-3.25,4.54-3.32h0c20.41.51,32.07.76,32.83.77H262l1.62,3.09.08,4.73-16.39.29c2.74,51,4.19,80.29,4.31,87,.15,8.31-.48,23.36-1.88,44.75l9-.16c2.7.35,3.28,1.92,3.3,3.17l.05,2.74a2.81,2.81,0,0,1-1.2,2.49,6.06,6.06,0,0,1-3.35.83c-15.9,1.2-25.57,1.83-28.69,1.89ZM228,164l1.22,2.33c3.4-.09,12.93-.72,28.36-1.88a5.36,5.36,0,0,0,2.82-.65,1.84,1.84,0,0,0,.77-1.66l-.05-2.73c0-.81-.28-1.92-2.35-2.2l-10.05.19,0-.54c1.42-21.65,2.06-36.86,1.91-45.21-.12-6.71-1.58-36.14-4.34-87.47l0-.52,16.43-.3-.07-3.48-1.22-2.34c-2.6,0-18.9-.43-32.55-.77-3.22.06-3.57,1.34-3.55,2.3l0,1.37c0,.47.9,2.1,11.94,3.39l.44.05v.44c.05,3.09-.35,5.38-1.24,7,1.31,22.26,2.1,40.16,2.34,53.19L240.18,159l-4.6.08c-4.32.08-6.82,1.33-7.64,3.82Z"/><path d="M291,11.06l9.57-.17q15-.29,15.12,3.82.07,3.69-17.68,5.8l.35,19.15q.06,2.73,13.76,3.85l.07,4.11q-15,.27-14.87,9.85-1,19.23-.91,99.95,1.4,1.35,20.57,2.37l.05,2.73a2.43,2.43,0,0,1-2.69,2.79l-23.25.42c-1.31,0-2.7-1.32-4.18-4q-.72-114.31,1.6-136.91a10.25,10.25,0,0,1-1.44-4.08Q288.78,11.11,291,11.06Z"/><path d="M291.09,166.23c-1.51,0-3-1.4-4.58-4.29l-.06-.11v-.12C286,86.08,286.51,40.05,288,24.89a10.25,10.25,0,0,1-1.43-4.17c1.21-7,2.57-10.13,4.42-10.16l9.57-.17a46.69,46.69,0,0,1,11.44.83c2.75.7,4.16,1.87,4.19,3.49S314.46,19,298.56,21l.34,18.7c0,.69,1.34,2.39,13.3,3.36l.45,0,.09,5.06h-.5c-4.9.09-8.59.93-11,2.51a7.42,7.42,0,0,0-3.41,6.83c-.67,12.76-1,46.3-.91,99.71.87.48,4.79,1.3,20.09,2.12l.47,0,.06,3.2a2.92,2.92,0,0,1-3.18,3.3l-23.25.42Zm-3.64-4.66c1.33,2.42,2.58,3.67,3.67,3.66l23.25-.42c1.55,0,2.23-.73,2.2-2.28l0-2.27c-16.75-.9-19.72-1.8-20.43-2.47l-.15-.15v-.21c-.07-53.59.23-87.22.91-100a8.43,8.43,0,0,1,3.85-7.64c2.47-1.63,6.17-2.53,11-2.67L311.66,44c-12.13-1-13.73-2.83-13.76-4.3l-.36-19.6L298,20c15.05-1.78,17.27-4.08,17.24-5.29s-1.17-2-3.44-2.53a45.09,45.09,0,0,0-11.17-.8l-9.57.17c-.56,0-2,.93-3.45,9.24A10.34,10.34,0,0,0,289,24.55l.08.14,0,.15C287.51,39.8,287,85.81,287.45,161.57Z"/><path d="M346.18,1.84l4.11-.07q3,16.43,3.21,25.94l1.42,78a1.2,1.2,0,0,1-1.34,1.39,1.21,1.21,0,0,0,1.39,1.35l-1.24,6.86.55,30.15,10.94-.2a1.22,1.22,0,0,1,1.4,1.35l2.71-1.42c4.58,1.06,6.88,2.39,6.91,4l0,1.37c-.87,2.76-3.58,4.17-8.14,4.26l-16.41.3q-6.84.12-7.51-36.87l-.28-15a1.21,1.21,0,0,1,1.34-1.4,1.2,1.2,0,0,0-1.39-1.34q0-2.73,1.32-2.76-2-34.41-2.37-54.69l-.6-32.82Q342.91,1.89,346.18,1.84Z"/><path d="M351.67,155.55c-2.55,0-4.43-3.13-5.74-9.56-1.25-6.14-2-15.5-2.22-27.8l-.28-15a1.89,1.89,0,0,1,.46-1.38,1.65,1.65,0,0,1,.82-.45c-.11-.3-.37-.41-.82-.41h-.5v-.5c0-1.83.4-2.89,1.29-3.19-1.31-22.6-2.09-40.86-2.34-54.26l-.6-32.83c.49-5.88,1.94-8.74,4.44-8.79l4.53-.08.08.42c2,10.93,3.1,19.68,3.22,26l1.42,78a1.87,1.87,0,0,1-.46,1.39,1.62,1.62,0,0,1-.81.45.49.49,0,0,0,.14.22,1,1,0,0,0,.67.19l.61,0-1.35,7.47.55,29.55,10.44-.19A1.68,1.68,0,0,1,367,145.8l2.27-1.18.18,0c4.88,1.13,7.27,2.59,7.3,4.46l0,1.45,0,.07c-.93,3-3.82,4.52-8.6,4.61l-16.41.3Zm-7.29-55.61a1.66,1.66,0,0,1,1.39,1.79v.5h-.5a1,1,0,0,0-.67.21,1,1,0,0,0-.18.68l.28,15c.22,12.24,1,21.54,2.2,27.62,1.17,5.73,2.82,8.76,4.77,8.76h0l16.41-.3c4.32-.08,6.82-1.33,7.64-3.83l0-1.29c0-.73-.86-2.15-6.35-3.45l-3.26,1.7v-.81c0-.63-.28-.87-.89-.85l-11.44.21-.56-30.65,1.15-6.43a1.58,1.58,0,0,1-.79-.41,1.86,1.86,0,0,1-.51-1.37v-.5h.5a.72.72,0,0,0,.85-.88l-1.42-78c-.12-6.19-1.17-14.75-3.13-25.43l-3.68.06c-2.33.05-3.17,4.28-3.46,7.83l.6,32.77c.25,13.48,1,31.87,2.37,54.67l0,.52h-.52C344.59,98.15,344.41,99,344.38,99.94Z"/><path d="M430.41,8.51l1.37,0q9.39-.18,17.91,81.76l1,54.78q-.62,17.79-5.14,17.88l-1.37,0q-2.73.06-2.81-4.05-.24-12.78.27-60.27l-1.55-9.55,1.37,0A9.86,9.86,0,0,1,440,85a188.19,188.19,0,0,0-3.31-31.41l-9.58.18q-5.94.1-20,103l-4.05,2.81-2.73,0a9.77,9.77,0,0,0-1.45-4.08A863.3,863.3,0,0,1,422.48,23.71Q427.09,8.57,430.41,8.51Zm.4,21.89Q427,44.8,427,46.89l8.2-.15q0-2.62-3-16.37Z"/><path d="M444.12,163.44c-1.46,0-3.18-.81-3.25-4.55-.16-8.53-.07-28.82.27-60.28l-1.63-10,1.13,0A8.83,8.83,0,0,1,439.52,85a188.38,188.38,0,0,0-3.23-30.91l-9.15.17c-2.06,0-7.34,13.41-19.52,102.61l0,.22-4.36,3-3.39.06v-.5a9.38,9.38,0,0,0-1.39-3.85l-.07-.13,0-.16A868,868,0,0,1,422,23.58C426.22,9.69,428.82,8,430.4,8l1.37,0h0c6.62,0,12.63,26.89,18.38,82.21l1,54.82c-.44,12.49-2.23,18.33-5.63,18.39l-1.37,0Zm-3.44-73.89,1.45,9c-.33,31.54-.42,51.82-.26,60.34.06,3.23,1.35,3.55,2.3,3.56l1.37,0c1.84,0,4.15-3.08,4.65-17.4l-1-54.75C442.21,23.14,435.9,9,431.82,9h0l-1.37,0c-1.11,0-3.55,2-7.46,14.84a866.07,866.07,0,0,0-23.55,131.6,11.47,11.47,0,0,1,1.39,3.67l2.11,0,3.75-2.6C420.75,53.35,425.38,53.26,427.12,53.23l10-.19.08.42A190.22,190.22,0,0,1,440.52,85a9.28,9.28,0,0,0,1.38,3.85l.4.72ZM426.52,47.39v-.5c0-1.45,1.22-6.89,3.82-16.62l.1-.37,2.15,0,.09.41c2,9.28,3,14.67,3,16.46v.5Zm4.68-16.5c-2.68,10-3.5,14-3.66,15.49l7.15-.13c-.18-2.1-1.15-7.26-2.91-15.37Z"/></g></g></svg>