<svg xmlns="http://www.w3.org/2000/svg" viewBox="0 0 615.48 284.37"><defs><style>.cls-1{fill:#fcfcfc;stroke:#f9f9fa;stroke-miterlimit:10;}.cls-2{fill:#f9f9fa;}</style></defs><title>logo</title><g id="Layer_2" data-name="Layer 2"><g id="Layer_3" data-name="Layer 3"><path class="cls-1" d="M92.19,68.34l2.73,0q28.85-.54,44.7,49.8a122.08,122.08,0,0,1,1.67,16.39q.77,41.93-35.38,85.54L92.3,224.38q-2.86-6.91-2.91-9.53l1.37,0-1.42-2.72q-2-36-2.47-60.21l-.07-4.11a1.21,1.21,0,0,1,1.34-1.39,1.21,1.21,0,0,0-1.39-1.34,40.4,40.4,0,0,1,1.19-9.6Q86.23,117,86,104l0-2.73a1.21,1.21,0,0,1,1.34-1.4l-1.42-2.71-.1-5.47Q86.24,68.45,92.19,68.34Zm4.23,6.76,0,1.37A40.14,40.14,0,0,0,98,86q-.9,25.19-1.13,87.59,1.77,22.27,2.09,39.7,33.66-29.77,32.8-77.28l-.25-13.68q-4.69-25-29.58-46Z"/><path class="cls-1" d="M196.39,67.8l1.37,0q9.39-.17,17.91,81.77l1,54.77q-.61,17.81-5.14,17.89l-1.37,0q-2.73,0-2.81-4.05-.24-12.79.27-60.27l-1.55-9.55,1.37,0a9.79,9.79,0,0,1-1.44-4.07,188.19,188.19,0,0,0-3.31-31.41l-9.58.17q-5.94.12-20,103.05l-4,2.81-2.73,0a9.77,9.77,0,0,0-1.45-4.08A863.43,863.43,0,0,1,188.46,83Q193.07,67.87,196.39,67.8Zm.4,21.88Q193,104.1,193,106.17l8.2-.15q0-2.61-3-16.36Z"/><path class="cls-1" d="M277.33,54l2.74,0q2.93,10.89,3.06,17.73,2.47,135.47-4.37,135.59a9.69,9.69,0,0,1-4.07,1.45q-5.19-4-17.57-62.68-2.33,0-5.85-20.42l-1.36,0,.37,20.51a1.2,1.2,0,0,1-1.34,1.39,1.21,1.21,0,0,0,1.39,1.35q-1.07,16.14-1.61,61.66L246,212l-5.47.1q.83-29.46.57-43.86l-1.75-95.74q.67-8.22,3.95-8.29,5.72-.09,20.53,74.88,8.7,27.21,8.85,35.42l1.37,0,.56-119Z"/><path class="cls-1" d="M314.13,69.75q31.72.8,32.85.77l1.42,2.71.08,4.1-16.42.3q4.15,77.33,4.34,87.49.23,12.62-1.91,45.25l9.58-.18c1.82.25,2.75,1.14,2.78,2.69l0,2.73c0,1.83-1.32,2.77-4,2.82q-24,1.8-28.7,1.89l-1.42-2.71,0-1.37q1.29-4.12,8.13-4.25l4.1-.08L323.59,138q-.36-19.68-2.34-53.32c.88-1.52,1.3-3.81,1.24-6.86q-12.35-1.44-12.39-3.88l0-1.37Q310,69.83,314.13,69.75Z"/><path class="cls-1" d="M376.31,64.51l9.57-.17q15-.28,15.13,3.82.06,3.69-17.69,5.8l.35,19.15q.06,2.73,13.76,3.85l.07,4.1q-15,.28-14.87,9.85-1,19.25-.91,100,1.39,1.35,20.57,2.36l0,2.74a2.43,2.43,0,0,1-2.69,2.79l-23.25.42c-1.31,0-2.7-1.32-4.18-4q-.72-114.32,1.6-136.91a10.25,10.25,0,0,1-1.44-4.08Q374,64.55,376.31,64.51Z"/><path class="cls-1" d="M431.45,55.29l4.11-.07q3,16.43,3.21,25.93l1.42,78a1.2,1.2,0,0,1-1.34,1.39,1.21,1.21,0,0,0,1.39,1.34L439,168.72l.55,30.15,10.94-.2a1.21,1.21,0,0,1,1.4,1.34l2.71-1.41c4.58,1.06,6.88,2.39,6.91,4l0,1.37c-.86,2.75-3.58,4.17-8.13,4.25L437,208.5q-6.84.12-7.51-36.87l-.28-15a1.21,1.21,0,0,1,1.34-1.39,1.2,1.2,0,0,0-1.39-1.34c0-1.82.41-2.75,1.32-2.76q-2-34.41-2.37-54.69l-.6-32.83Q428.19,55.35,431.45,55.29Z"/><path class="cls-1" d="M515.68,62l1.37,0q9.39-.18,17.92,81.76l1,54.78q-.63,17.79-5.15,17.88l-1.37,0c-1.82,0-2.76-1.32-2.81-4q-.23-12.78.27-60.27l-1.55-9.55,1.37,0a9.86,9.86,0,0,1-1.44-4.08A188.19,188.19,0,0,0,522,107l-9.57.18q-6,.1-20,103L488.34,213l-2.73.05a9.86,9.86,0,0,0-1.44-4.08A864.52,864.52,0,0,1,507.75,77.16Q512.36,62,515.68,62Zm.4,21.89q-3.84,14.4-3.8,16.49l8.21-.16q-.06-2.61-3-16.36Z"/><path class="cls-2" d="M614.52,267.69c0,2.56.8,1.63,1,2C615.21,265.43,614.31,267.81,614.52,267.69Z"/><polygon class="cls-2" points="611.85 225.57 612.21 226.31 611.25 220.11 611.85 225.57"/><path class="cls-2" d="M611.15,186.15c-1.36,3.75.49,14.28.11,21.31l-.31,1.17,1.21,3.15C611.82,203.24,610.86,192.17,611.15,186.15Z"/><path class="cls-2" d="M613.85,165.08c-.53,1.3-.56-4.54-.08,4.9.05-.48.08-.61.12-.89C613.87,168.24,613.85,167.07,613.85,165.08Z"/><path class="cls-2" d="M613.89,169.09c.12,4.15.42-2.73,0,0Z"/><path class="cls-2" d="M613.22,149.92l.6,5.46c.3-1.15.29-6,.56-4.21C614,145.56,613.7,146.72,613.22,149.92Z"/><path class="cls-2" d="M612.08,144.76l.27,2.83A5.62,5.62,0,0,0,612.08,144.76Z"/><path class="cls-2" d="M612.9,153.59l-.55-6c-.22.79-.68.89.21,2.75C612.12,149.86,612.55,151,612.9,153.59Z"/><path class="cls-2" d="M612.74,157c-.25,3.07-.37,7-1,1.56C612.16,169,613.14,167.45,612.74,157Z"/><path class="cls-2" d="M609.63,184.17l-.34,4.1.54,3.54C609.56,190,610.08,183.9,609.63,184.17Z"/><path class="cls-2" d="M613.34,115.84c-.31-.33-.78,1.86-1.16,2.27l.42,4C612.77,120.07,612.89,116.13,613.34,115.84Z"/><path class="cls-2" d="M612.18,118.11l-.63-6C611.59,117.48,611.85,118.46,612.18,118.11Z"/><polygon class="cls-2" points="610.48 143.81 611.76 153.72 610.43 141.9 610.48 143.81"/><polygon class="cls-2" points="612.95 92.76 613.72 96.17 612.54 90.09 612.95 92.76"/><path class="cls-2" d="M612.55,77.45c.63,2.53.92-3.49,1.33-.82a93.42,93.42,0,0,0-1.25-10.89A65.81,65.81,0,0,1,612.55,77.45Z"/><path class="cls-2" d="M611.87,60.39c.17,1.69.46,3.45.76,5.35A51,51,0,0,0,611.87,60.39Z"/><path class="cls-2" d="M611.51,101.78c.18-.47.64-1.38.78-4.77l-.81,2.39C611.49,100.13,611.5,101,611.51,101.78Z"/><path class="cls-2" d="M611.45,99.48l0-.08c0-2.58,0-4.37-.05-5.14C611.44,94.92,611.44,96.49,611.45,99.48Z"/><path class="cls-2" d="M611.52,102.38c0-.22,0-.38,0-.6A.67.67,0,0,0,611.52,102.38Z"/><path class="cls-2" d="M611,128c-.55-3.54-1.19-10.93-1.79-3.75C609.81,126.73,610.15,122.62,611,128Z"/><path class="cls-2" d="M610.5,105.35l-.07,6.42c.22-.13.53-1.29.8.46Z"/><polygon class="cls-2" points="610.17 102.21 610.5 105.35 610.53 102.97 610.17 102.21"/><path class="cls-2" d="M611.27,71.4a85.18,85.18,0,0,1-.63-9.23c-.1,3.68-.12,7.48,0,11.08C610.87,73.76,611.38,75.33,611.27,71.4Z"/><path class="cls-2" d="M611.29,85.05c0-.19,0-.44-.06-.62C611.16,84.81,611.14,85.12,611.29,85.05Z"/><path class="cls-2" d="M610,28.44l-.14.55a1.58,1.58,0,0,1,.15.12Z"/><path class="cls-2" d="M610.44,73.87a24.36,24.36,0,0,0,.42,6c-.13-2.06-.22-4.25-.27-6.6C610.46,73,610.38,73,610.44,73.87Z"/><path class="cls-2" d="M611.3,51c-.15,1.45-.27,3.08-.38,4.79C611.16,54.36,611.53,51.49,611.3,51Z"/><path class="cls-2" d="M611.45,83.5l0,.41C611.66,83,611.57,83.12,611.45,83.5Z"/><path class="cls-2" d="M611.45,83.5c-.15-1.42-.38-2.53-.59-3.65.1,1.68.22,3.23.37,4.58A6.08,6.08,0,0,1,611.45,83.5Z"/><path class="cls-2" d="M604.36,18.32c.8.48,1.67,7.72.93,14,.71,6.15,3.24,2.07,4.6-3.33-.35-.19-.67-.18-1.26-6.52-.39,2.23-.75,14.1-1.56,8.76-.57-8.4.15-6.89.49-11-.46,1.75-.86-.92-1.33-3.79-.24-1.45-.49-2.87-.77-4s-.59-1.46-.94-.92l.64,7.25C604.94,18.94,604.53,16.27,604.36,18.32Z"/><path class="cls-2" d="M610,41.08l.14,2.6a75.66,75.66,0,0,1,.91-9c-.46-4.34-.77-5.24-1-5.53L610.16,42Z"/><path class="cls-2" d="M610.39,55.4c-.9-2-1.38-8.28-2.24-4.42.2,7.65.82,5.35,1.27,9.92-.44-12.36.55,3.54.87-5.4.19,2.43.28,4.61.35,6.67.07-2.22.16-4.37.28-6.4l0,.29v.06l0,0c-.1.54-.16.72-.11.11a1.81,1.81,0,0,1,0-.25,1.42,1.42,0,0,1-.33-.56c.11-3.58.21-.56.33.56,0,0,.09.13.13.14a.06.06,0,0,0,0,0l-.7-12.38C610.1,46.31,610.19,49.59,610.39,55.4Z"/><path class="cls-2" d="M607.2,117.62c.07-.38.13-.37.2-.4C607.28,116.43,607.2,116.12,607.2,117.62Z"/><path class="cls-2" d="M607.63,112.52a16.51,16.51,0,0,1,.46,4.57c-.21,2.54-.41,0-.69.13.26,1.76.73,6.17,1.05.63l-.14-.88c.21-5,1.17-11.41,1.3-10.54A21.16,21.16,0,0,0,607.63,112.52Z"/><path class="cls-2" d="M608.78,83.61l-.61-10.3-.65,5.26.45-.27C607.9,84.16,608.43,82.89,608.78,83.61Z"/><polygon class="cls-2" points="610.44 27.25 611.38 28.61 609.98 22.67 610.44 27.25"/><path class="cls-2" d="M610.09,13.86l.8.48-.14-.88,0-.23,0-.35-.07-.76-.3-3-.11,2.6L610.15,13c0,.25,0,.31,0,.46Z"/><path class="cls-2" d="M11.65,163.66l.28,3C11.83,165.25,11.74,164.33,11.65,163.66Z"/><path class="cls-2" d="M11.3,141.72l-.4-.53C11.14,142.2,11.3,142.62,11.3,141.72Z"/><path class="cls-2" d="M284,6.47c-4.42-.66-9.37-1.71-8.83-.83l1.38.84A51.07,51.07,0,0,1,284,6.47Z"/><path class="cls-2" d="M58.72,15.77,60,16l3-.88Z"/><path class="cls-2" d="M55.68,19.42,49.85,19C51.16,19.14,53,19.29,55.68,19.42Z"/><path class="cls-2" d="M15.34,275a3.83,3.83,0,0,0,1.08-.91C15.6,274.11,15.66,274.56,15.34,275Z"/><path class="cls-2" d="M475.89,3.19c-3.81-.26-6.85-.35-9.51-.35C471,3.26,474.69,3.94,475.89,3.19Z"/><path class="cls-2" d="M2.29,155.2c.19,1.85.38,2.64.57,2.58C2.68,155.87,2.49,154.8,2.29,155.2Z"/><path class="cls-2" d="M455.38,3.05c.67.07,1.33.11,2,.17,2.78-.2,5.58-.37,9-.38A42,42,0,0,0,455.38,3.05Z"/><path class="cls-2" d="M446.22,267.84c.31,0,.69.05,1,.09C447.29,267.81,446.86,267.81,446.22,267.84Z"/><path class="cls-2" d="M573,274.28c-1.25.08-3.28.12-5.2.16A50.93,50.93,0,0,0,573,274.28Z"/><path class="cls-2" d="M559.21,1c2.84-.11.45-.1,0,0Z"/><path class="cls-2" d="M573.09,4.15c-.6.11-1.06.24-1.13.44A2.34,2.34,0,0,1,573.09,4.15Z"/><path class="cls-2" d="M427.17,9h-.25C427.77,9.12,427.63,9.09,427.17,9Z"/><path class="cls-2" d="M563.49,1.29c-1.07-.09-2.3-.15-3.64-.19C560.44,1.15,561.55,1.22,563.49,1.29Z"/><path class="cls-2" d="M562.91.89l2.48,0C565.75.78,565.43.69,562.91.89Z"/><path class="cls-2" d="M555.25,1.09c1.62,0,3.14,0,4.6,0-.56-.05-.79-.09-.64-.13Z"/><path class="cls-2" d="M213.45,274.42l.61.07C216.92,274.08,215.67,274.16,213.45,274.42Z"/><path class="cls-2" d="M210.22,16.83a3.06,3.06,0,0,0,.32,0l-.42,0Z"/><path class="cls-2" d="M200,17.67a27.85,27.85,0,0,1,10.1-.91l-3.42-2.44Z"/><path class="cls-2" d="M12.86,216.18l.65-7.18c1.44,8.63,1.11,14.89,2.09,8.14-2.74-1-.79-27.85-3.52-28.8l.48-4.74c0,1.36.16,1.57.16,2.91,1.13-9.21-2.09-6.79-1.92-18.64.13-4.13.48-7,.85-4.21l-.84-9.18c0-2.68.49-2,.48.63l-.47-14,.08.1c-.46-2-1.2-6.51-1.52-8.72.32-3.57.32,1.78.64.86l-.8-7.75c.65-3.18,1.45,3.24,1.45,8.61,2.57-7.3-.81-6.43.49-22.11l.48,7.33c1.45-4.76.79-10.47,1.6-18.78-.47,2-2.12,16.64-3,8.23a47.08,47.08,0,0,0-.42-10c1-.06.64-4.5.49-10l1.28.35c-.48-6-1.12-5.51-1.76-9,0-6.7,1-8.1,1.77-9.7,0-10.72-1.45,7.44-1.92-5.25.32-8.92-.31-15.17-1.27-25.82.32-6.25.8,1.07,1.12-1.17L8.46,32.63c0-1.36.32-.93.49-.71-.48-4.65-1.29-.36-1.77-7.68-.63-.52-.35-2.82,0-4.78l2.64.36,1.22.15.58.06.28,0,.48,0a39.47,39.47,0,0,0,8.25-.52c2.24.32-1.07.8-.37,1.28,12.42-1.28,10.65-1,20.84-2.56l8.72.68c-6.42-.84,1.73-2.12,8.87-3.19-2.27-.42-4.22-.79-5.52-1l11.41-.9c1.38.19.24.65-1.62,1.22.77-.12,1.51-.24,2.08-.35,4.1.4,2,1.18-.92,1.94L60,16c-2.81.83-5.43,1.74-4.83,2.48a30.22,30.22,0,0,1,3.74-.42c-.73.23-1.2.42-.86.55a14.7,14.7,0,0,0,3.44-.54l2.62,1.38.62-.58,15,.62c10.66-1.63,19.92-3.92,36.88-4.82-4.19,1.13-.87,1.73-1.08,3-4.65-1.22-13.13.8-21.93.69,4.59.06,3.6.67,2.43.89l15.66-1.48c-.33,1,3.35.7,7.45,1.05-3.13-1.95,11.67-1.55,18-2.28.41.66-1.11,1.38-8.9,1.36,8.62,1.35,11.06-2.56,19.51-1.43-1.9.05-2.92,0-3.67.32,4.43-.68,15.3-.4,12.75.23l-1.89.05c12.62,0,38.42-.69,40.27-2.42.13.21-1.62,2.08-2.37,2.44l22.41-6.14c-2,1.5,5.72,4.84-4.73,5.85a76.94,76.94,0,0,0,13.06-.3c-2-.17-5.15-2-2.35-2.2,7.72,1.48,5.36.77,14.86,2-3.08-.25.29-2.61,5.15-2.62-.75.35.45,2.25-1.33,2.52l12-2.47c-3,.46-.5,1.92,2.22,2.5-1.26-.41,10.45-.15,13.67-.43l-5.14-.42c13.66.09,13.43-3.41,27-3.54-1.63.49-4,2.93,2.89,3.09,3.14-1.21,13.87-5.8,25.83-6.9l2.31.61,9.18-.92c-5.69,1.84-21.68,5.78-30.43,7.36,5.12.43,1.44.75,9.09.55,2.71.57-4.16,1-6.41,1.09l17.82.08c-.82-1.34,13.59-1.6,12.89-2.71L313.56,15.8c-.81-1.33,11.11-4,23.73-4,3.22.48-2.36,2.44-2.09,2.88,1.63-.49,12-1.1,13.13-.79l-5.34.81c7,.38,11.43-2,19.89-.86,2.92,0,8.73,1.57,9.22.77-4.78-1.45-5.79-6.18-2.65-7.39,1,.09,15.33,1.19,18.67,1.89,4.81,1.11-7.15,3-3.05,3.95.17-.37,2.81-.87,3.91-1,3.07.25-1.24,1.16,5.4.87,1.09-1.38,13.52-.13,3.12-1.21,6.5-.51,6.92.15,14.55,0-2.44-.84,6.81-3.13,13.31-3.64-.37.36,1.1.78,1.81,1,13.33-.12,20.5.36,32.93.15,1.15.31,7.15.6,4.61,1.23A41.27,41.27,0,0,1,472,9.48c7.44,1-8.54.34-2.86,1.65.47-.8,9.89-1.27,15.35-1.87-1.71-1.19-12.63,0-18.08.59-.06-1.68,9.43-3.62,22.4-4.64,10.32-.61,4.5,1,6.29.74,19.4-.06,16.47-3.25,32.59-2.33,6.41,1,.33,2.13,1.76,2.88-8.4.56-12.92-.44-18.62-.3l7,.38a63.41,63.41,0,0,1-11.34.53c5.37.87,32.77-.41,47.75.2,2.65-.41,7.23-.86,5-1.26l-4.73.24c-4.37-.79,8.89-1.36,2.89-1.66,6.34-.72,13.44-1.81,22.39-1.48l1.7,1.19c-.19-.35-5.85-.62-8.36-.2,3.72-.61,13.74,1.41,17.79-.27l-6.28-.74,9.53-1.22,2.58-.28.34,0,.5,0,1-.07,2.07-.12c2.78-.15,5.67-.26,8.49-.28V4.35a36.35,36.35,0,0,0,.46-3.74c-.87,0-1.5,0-2.62,0a53.56,53.56,0,0,1-6-.6c2,.41.71.65-1.82.8l-2.14.1-1.55,0L592,1c-4.7.08-9,.17-5.09,1-5.81-1.54-10-.51-17.59-1.78.24.4,2.69.73-4,.65a11.13,11.13,0,0,1-1.45.38l-.45,0,.37,0c-.29.07-.31.08.14,0a15.74,15.74,0,0,1,3.4.56c-3.29,1-13.87,1.15-17.44,1.7-4-.12,1.65-.5-.52-.89l-5.33.82c-.54-.89-10.51-1.3-1.22-2l-8.37.11a96.94,96.94,0,0,0-15.89,0c-4-.12-9.95,1.17-6.53.41L499,2.81l-.13-.22c-12.95.13-26.63,2-41.46.63-4.36.3-8.86.66-16.16.54L439.81,3c-5.6.37-16.83-.47-19.22.38-6.08-2-27.17,0-37-.15l-.35,1c-6.78.07-13.27.48-21.67,1l.53.88c-7.24.87-18.65-.29-30.12,0,.77-.36,3.68-.32,5.74-.15-13.74-1.78-28.88,2-41.34.75a34.38,34.38,0,0,1-7.51.13c.29,0,.55,0,.77-.06h-1.28c-1.37-.13-2.78-.28-4.31-.4,1.3.2,2.55.35,3.63.42-2.39.06-6,.24-9.55.52l-1.53-.93-.83,0c-3.49-.29-2.79.51-.92,1.2-1.78.19-3.42.41-4.68.67-2.86-1.51-9.31.69-13.2-.9-2.38.85-17.84.94-19.7,2.67-.13-.22-1.18-.3.74-.35a65.53,65.53,0,0,0-11.47.3l-1.7-1.19-8.61,1.8c-5.27-.65-7.45-1-2.25-2.08-12.57,1.68-10.21.73-20.89,2.36l.51-.8c-3.83.1-9.93,1.27-12.25.66-8.59-1.35-42.37.57-64.37-.43,4.3,2.26-10.24-.86-11.07,1-1.29-.53-4.36-.79-.81-1.33-11.21.75-16.87-.57-24.59,1.1-1.29-.53,2.39-.85,1.24-1.16a16.54,16.54,0,0,1-4.73.24c-1.15-.31,1.64-.5,3.41-.77-11.46.3-12.59,2-13.39,3.63-5.82-.65-8.72-.49-12.89.64-2-.49-5.41-1,1.7-1.29-4,0-24.48-.32-24.86,1a31.78,31.78,0,0,0-6.65.17l-9.37.06-4.16.07-7.21.18,3.4.15a12.21,12.21,0,0,1-4.46.87c.07,1.64,0,3.33,0,5.42,0,1,0,2.17,0,3.4v1.66l.05,1.66-.16-.21C1.5,43.2,3,33.9,2,50l.94-.89C5,50.58,2,63.4,2.94,72.73l.49-3.38C4.23,74.43.89,83.66.72,88.78.56,89.9.4,87,.24,85.47-.73,98.9,1.53,87.19,2,97.17,1.36,99,.24,94.83.23,101.56c-.48,3.36,2.56,19.47,1.43,28.67.48-2,1-4,1.45.59.31,7.11-1.63,19.27.14,25.67-.13.9-.26,1.25-.39,1.29.52,5.43,1,17.66,2,20.92-3.22,5.09,2.23,33.79-.83,33.72l.47,16.73-.32-.43c0,10.7.8,14.46,1.6,18.21-.16,2.48-.48.68-.64.47-.17,7.82-.21,12.12,0,16.1.1,2,.28,3.89.54,6.12.14,1.13.28,2.34.45,3.68L6.73,279c-.32.79-.63,1.64-1,2.55A22.45,22.45,0,0,1,5.93,284c2.13-.05,5.08,0,8.81.05l2.67.05,2.18.06,4.74.13a190.66,190.66,0,0,0,20.9-.51,3.38,3.38,0,0,1-1.68.48c17.22-1.48,41.33,2,47.59-1.73l11.36-1.1c-14.73,0,2.16-1.61-3.91-2.1,5.79-.31,15,.82,7.88,1.13l-1.12-.16c-2.57,1.93,18.31.34,17.94,1.62,29-.62,57.22-.09,84.35-.51l-3.15-1.4,9.47-.09c2.49.29,3.35,1.08-3.4,1.14,3.56.77,11.31-.9,11.5-1.22,13.23.35-5.14,1.8-1.08,1.76l5.5-.21-1.24-.15c4.45-.68,4.84-1.32,12.95-1.39,5.14.2,2.65.85,4.68.87,0,.11.67.14,3.1,0l11.92-.1-4.79-1.06c5.28-.67,11.22-.15,5.69-1.36,8.12,1.87,44.5-.08,49.47.45,7.39-1,14.69-1.1,23.75-1.16-2.26-.2-3.63-1.47,4.18-1.46-2.8,2.74,14.32.91,20.66,2.72-5.66-1.18,22.19-.72,13.31-2.38,6.52.1.42,1,5.37,1.54,15.49-1.32,34.18,0,53.34-.65.29-.36-2.92-.84,1.18-1.44l10.15,1.58c3.78-.24,3.44-2.1,10.38-1-1-.28-2.45-.7.09-.86,37.58,1,76.7-2.81,114.89-.28-5.18-.59-1.74-.72,2.2-.82-2.57-.11,0-.87-.47-1.33l16,1c2.88-1.38,17.11-.4,18.76-1.7l-5.06.32c6.7-1.62-9.46-3.15-8.51-5.08-7.5,1.84-19.9-2.15-32.2.51-2.74-.35,2.31-.66.84-1.08-3.11.88-6.89,1.12-13.9.88l.79-.22c-19.68.56-28.14-.1-50.26-.23l1.66.92a62.37,62.37,0,0,1-8-.52c-5.43,1.54,13.34-.16,8.41,1.51-6.34-1.81-33.51.59-37.81-1.53-7.31.13,2.16,1.06-5.15,1.18l-1.95-.56-1.83.8c-4.79,0-7.22-.73-7.41-1.23,1.16,0,3.3-.2,4.55-.27-6.23-.58-17.52.56-19.66.37l7,.24c-19.94.92-44.31.58-63.56,2.14l1.47.42c-14.7,1.1-11.8-.27-27.95.4l.58-.11a86.3,86.3,0,0,1-12,.84c4.07-.6-7.69-.88-2.35-1.56-15.95,1.18-7.88.84-18.39,2.7l-2.45-.7c-3.58.74-3.87,1.1-11.94,1.44,6.61-.76-5.17-1,2.23-2-17-1.31-25.12,2.1-32.93-.13-7.74,2.19,14.68.87,10.33,1.39,3.66.6-6.39,1.65-11.71,1.54-5.41.06-9.25-2.45-22.86-2.17,1.36,0,1.45-.17,2.8-.18-5.1-.44-10,.89-16.23.15-3.48,1.31-8.11.08-9.09,1.68l12.47-.6c-7.06.55-13.67,2.52-25.34,1.84a51,51,0,0,1,6.74-1.1c-3.42-.41-6.56.43-10.1,0,1-1.6,15.16-.62,22.72-2-3.67-.6-14.32,1.41-10.54-.37-5.44,2.28-13.41,0-22.6,1.8l.59-1a62.59,62.59,0,0,1-7.15.71l4.84-1.32c-7.44,1.18-14.4-.66-21.55.05,15-.31,3.38,1.08,9.73,1.65-18.46,1.61-10.67-2.28-31.35-1.45,2.8-.19,10.52.38,6.15.9a103.71,103.71,0,0,1-11.58-.85c-13.7.45,2.13.94-3.7,1.63-4.69-1.07-6.72.59-12.72,1.07l-.06-1c-15.64-.34-4.11,2.08-18.19,1.59l5.92-1.44-7.32.48,1.49-1.13c-8,1-10.45.8-18.27.63,1.83.65-1,1.77-7.91,1.93-4.73-.49,2.63-1-7.18-.65a16.4,16.4,0,0,1,8.9-.64c.43-.32,2.17-.64,2.62-1-5.1-.57-12.78.08-16.33.16a37.53,37.53,0,0,1,3.85.15l-14.2,1.6c-2.24-.32-.47-.65,1.28-1-2.88.15-4.86.63-9.09.79,1.08-.8.8-1.61,6.79-2.08L45,274.94c-.91-.32-7-.81-5.22-1.13a107.77,107.77,0,0,0-13.26.76c-2.45.22-5,.45-7.52.59l-1.91.08-.85,0a4.37,4.37,0,0,1-1.06-.09,3,3,0,0,1-1,.33,1.52,1.52,0,0,1-.1-.32c0-.42.05-.83.08-1.23l.06-.57,0-.27v-.54c.06-2.27.12-4.53.14-6.85a116.26,116.26,0,0,0-.71-15l1.29-6.32c-.47-8.68-1.61,8.55-2.41-5.9-.63-10.24,1.13-3.85,1.46-7.45-.8-5.08-2.41-13.9-1.44-23.33C12.87,210.83,12.7,213.27,12.86,216.18ZM10.28,109.06c.24,2.07.94,6.2.4,7.73C9.53,114.44,10,112.61,10.28,109.06ZM74.53,17.34a22.48,22.48,0,0,1-6.63-.09A46.7,46.7,0,0,1,74.53,17.34Zm453.54-15a1.19,1.19,0,0,0-.22,0C523.21,2.09,524.86,2.21,528.07,2.33Zm9.62.24c1-.15.9-.28.49-.41a23.93,23.93,0,0,1-5.29.29C533.58,2.69,534.82,2.84,537.69,2.57ZM243.93,280.36l-1.88-.22C246.27,279.78,245.09,280.06,243.93,280.36Z"/><path class="cls-2" d="M56.09,19a1.39,1.39,0,0,1-.9-.5C54.38,18.66,54.36,18.85,56.09,19Z"/><path class="cls-2" d="M15.05,275.17h.09a.9.9,0,0,0,.2-.18Z"/><path class="cls-2" d="M388.9,13.47a22.36,22.36,0,0,1-3.83-.43C385,13.28,385.87,13.47,388.9,13.47Z"/><path class="cls-2" d="M588.62,0l-6.16.36A34.31,34.31,0,0,1,588,.58C587.87.36,586.69.05,588.62,0Z"/><path class="cls-2" d="M605.46,42.91c.13.9,0,1.91.18,2.79l.45-.25C606,41.62,605.58,38.94,605.46,42.91Z"/><path class="cls-2" d="M594.38,3.1c.27.4,1.29.52,3,.5,2,0,4.62-.18,7.49-.3-.34,0-.67,0-1,0,1.23-.59.24-.76-2-.72-1.09,0-2.46.09-3.92.19l-1,.07-.83.08Z"/><path class="cls-2" d="M606.14,3.24l1,0c.05,1.38.08,2.8.08,4.19.41.36.13-1.71,0-4.22Z"/><path class="cls-2" d="M549.88,1.81c2,.17,1.26-1.06,2.43-.75C554.57,0,538.69,2.56,549.88,1.81Z"/><path class="cls-2" d="M597.92,5.71c-.5-.32-1.06-.65-1.57-1l-2.4.85Z"/><path class="cls-2" d="M563.84,5.6l6.9.15c-.11-.17.76-.28,1.84-.38C568.33,5.42,563.67,5.3,563.84,5.6Z"/><path class="cls-2" d="M572.58,5.37a48.88,48.88,0,0,0,5.54-.26C576.93,5.14,574.35,5.22,572.58,5.37Z"/><polygon class="cls-2" points="588.5 6.18 586.46 6.01 581.59 6.03 588.5 6.18"/><path class="cls-2" d="M489.73,6.76l-7.52.42c-.76.36,1.29.53,4.09.35C488.1,7.25,490.89,7.07,489.73,6.76Z"/><path class="cls-2" d="M512.53,9.09a11.71,11.71,0,0,1-3.33-.7L509,9.63Z"/><path class="cls-2" d="M490.6,9.78c-.75.36-10.91,1.19-1.37.93C490,10.36,497.52,9.94,490.6,9.78Z"/><polygon class="cls-2" points="377.2 10.28 379.11 10.23 378.8 8.2 377.2 10.28"/><path class="cls-2" d="M277.37,17c8.92.32,2.09-1.3,10.16-.84,2.09-.51-6.59-.37-4.45-.83C277.7,15.92,274.87,15.68,277.37,17Z"/><path class="cls-2" d="M283.08,15.31c.86-.09,1.77-.21,2.74-.36C284.26,15.11,283.53,15.22,283.08,15.31Z"/><polygon class="cls-2" points="593.98 274.99 599.72 275.31 596.01 274.69 593.98 274.99"/><path class="cls-2" d="M605,273.28l1.37,1.27,3.43-1.23A21.8,21.8,0,0,1,605,273.28Z"/><path class="cls-2" d="M12.6,93.09l-.32-.44c-.32.9-.32,2.24-.32,4.93Z"/><polygon class="cls-2" points="13.05 170.86 13.05 169.52 11.93 172.04 13.05 170.86"/><path class="cls-2" d="M15.74,236.09c0-2.66-.32-5.79-.32-8.47C15.74,233.43,14.29,236.84,15.74,236.09Z"/></g></g></svg>