<svg xmlns="http://www.w3.org/2000/svg" viewBox="0 0 439.03 432.22"><defs><style>.cls-1{fill:#bae2dc;}.cls-2{fill:#231f20;}.cls-3{fill:#afd9d2;}.cls-4{fill:#fff;}</style></defs><title>rocket_1</title><g id="Layer_2" data-name="Layer 2"><g id="Layer_2-2" data-name="Layer 2"><rect class="cls-1" x="93.73" y="331.41" width="68.45" height="14.09" transform="translate(276.8 8.66) rotate(45)"/><path d="M179.2,185.17c-11.55.69-23.09,2.1-34.53,3.78-21.85,3.23-44.09,7.63-64.52,16.23-13,5.45-25,13.45-36.57,21.3a302.46,302.46,0,0,0-25.65,19.15A146.26,146.26,0,0,0,5.72,257c-1.8,1.92-4,3.86-5,6.32-1.46,3.49-.71,7.1,2.7,9,5.41,3,12.46.17,17.81-1.39A140.57,140.57,0,0,1,66,265.83a115.86,115.86,0,0,1,17.8,2.08c6.66,1.33,12.61,4,19,5.92a18.3,18.3,0,0,0,6.68.46c16.41-1.33,29.93-14.11,39.36-26.57,3.26-4.3,6.08-8.17,9.68-12.11,4.48-4.91,8.8-10,12.87-15.21,4.47-5.77,8.89-11.85,11.92-18.52,1.75-3.87,3.8-9.29,1.09-13.21a10,10,0,0,0-4.31-3.25c-1.88-.83-.91.74.21,1.24,10,4.43-6.89,26.15-10.12,30.43-5.85,7.75-12.69,14.52-18.88,21.94-3.54,4.25-6.33,9.1-10,13.28a77,77,0,0,1-12.15,11.3A47,47,0,0,1,111.44,272c-2.82.6-6.35,1.16-9.23.46-3.15-.76-6.27-2.54-9.4-3.52a104.91,104.91,0,0,0-15.29-3.52C61,262.86,44,263.81,27.61,267.17c-3.16.65-6.3,1.39-9.4,2.3-3.37,1-13.37,5.08-15.38.47-.65-1.48-.09-3.83.53-5.23.91-2,2.64-3.65,4.14-5.29a135.3,135.3,0,0,1,11-10.55,282.55,282.55,0,0,1,26.43-20C55,222,65.32,215,76.28,209.68c20.45-10,43.51-14.75,65.85-18.3,12.92-2,26-3.7,39.06-4.47C182.12,186.85,179.93,185.13,179.2,185.17Z"/><path d="M241.52,266c-21.81,16.27-44.17,33.42-62.55,53.57-3.91,4.29-6.52,7.86-8.35,13.34a45.56,45.56,0,0,0-2.42,10.94c-.28,3.66,1,6.44,1.41,9.85.44,3.86-1.43,9.08-2.09,12.87-1.42,8.18-3,16.33-4.82,24.43s-3.7,16.07-6.85,23.63c-2.27,5.46-5.4,11.54.84,15.82,9.28,6.38,20.07-6.32,25.89-12.47,23.94-25.31,45.17-53.33,60.64-84.61,8-16.18,16.36-34.29,17.38-52.58.65-11.65-6.59-23.88-19.08-14.79-.94.68,1.47,2.41,2.3,1.8,3.4-2.47,8.28-5.26,11.45-1a14.8,14.8,0,0,1,2.38,5.75c1.14,5.6-.06,12-1.23,17.5-3.25,15.23-9.76,29.81-16.72,43.66-14.24,28.33-33.27,53.85-54.6,77.24-4.4,4.83-19.85,24.57-27.75,18-4.09-3.41-.79-8.47.78-12.07a80.34,80.34,0,0,0,3.12-8.78c2.19-7.15,3.88-14.47,5.42-21.79,1.46-6.93,2.75-13.91,3.94-20.89.55-3.22,2-7.41,1.72-10.71-.2-2.69-1.54-5.14-1.5-8.06a41,41,0,0,1,2.38-12.25A31.08,31.08,0,0,1,180,322.88c11.53-13.19,25.39-24.52,38.94-35.55,8.18-6.66,16.46-13.2,24.91-19.51C244.76,267.12,242.34,265.41,241.52,266Z"/><path d="M168.88,349.47l-9.95,1.22,1.91.78-28-28L114.87,305.5c-1.63-1.63-3.19-3.49-5-5a3.85,3.85,0,0,1-.85-.86c.62,1.3.51-.58.62-1.41l3.24-24.15c.14-1-2.55-2.27-2.71-1.09-1.1,8.18-2.73,16.46-3.31,24.68-.27,3.82,4.4,6.59,7,9.16l41.86,41.86c1.07,1.07,2.46,3.11,3.93,3.71,2.92,1.18,8-.62,11.09-1,1.3-.16-.89-2.09-1.85-2Z"/><path d="M181.49,186.79c13.37-20.38,30.7-38.75,48.22-55.53a427.56,427.56,0,0,1,58.11-46.75A399.27,399.27,0,0,1,326,62c7.14-3.69,15-6.49,21.67-10.92a131.76,131.76,0,0,1,41.73-17.75,125,125,0,0,1,35.43-3.37c3.8.19,8.86.14,10.45,5.21a18.27,18.27,0,0,1,.47,3.56c.18,1.8.27,3.61.36,5.42.2,4.48.19,9-.05,13.46a102.85,102.85,0,0,1-7.09,33.49c-5,12.16-13.74,22.09-20.52,33.24-9.94,16.33-18.17,33.52-28.63,49.58-32.48,49.87-74.93,93.31-125.53,124.88-1,.59,1.42,2.35,2.3,1.8,47.74-29.78,88.26-70.15,120-116.49,10.66-15.56,19.84-31.81,28.77-48.39a222.66,222.66,0,0,1,11.83-19.46c4.09-6,8.61-11.68,11.89-18.21a96.22,96.22,0,0,0,9.16-33,118.41,118.41,0,0,0,.06-26.81c-1.44-11.43-14-10.57-22.81-10.44A135.2,135.2,0,0,0,357,42.5c-4.55,2.31-8.79,5-13.11,7.68a81.09,81.09,0,0,1-8.06,3.93q-11.33,5.36-22.27,11.44a415.57,415.57,0,0,0-70.06,49.21c-23.79,20.6-47.29,44.06-64.65,70.53-.57.87,2,2.42,2.6,1.5Z"/><path d="M110.57,273.78c.79.79,3.36,1,2-.4-.79-.79-3.36-1-2,.4Z"/><path d="M117.87,319c-9.27,10.23-19.38,21.43-25.36,34-1.75,3.66-3.89,10.34-.84,13.86,4.46,5.16,11,1.72,15.67-.72,12.38-6.43,24.21-15,32-26.72.2-.32,0-.8-.27-1L120.2,319.43c-.87-.87-3.45-.82-2.07.56l15.54,15.54c.61.61,2.6,2,2.85,2.84.46,1.6.77-1.78-.63.78a28.94,28.94,0,0,1-3.87,5,83.23,83.23,0,0,1-18.26,15.13,87.74,87.74,0,0,1-13.29,7.25c-2.19.89-5.08,1.41-7-.64-1.17-1.23-.32-3.41-.15-4.82,1-8.44,7.16-15.9,12.18-22.5,4.73-6.22,9.73-12.27,15-18.06C121.21,319.64,118.71,318,117.87,319Z"/><path d="M107.38,298.44l-9.69,9.69a.83.83,0,0,0,.1,1.21l51.33,51.34c.39.39,1.6,1.22,2.18.64l9.69-9.68a.85.85,0,0,0-.1-1.22l-51.34-51.34c-.87-.88-3.46-.8-2.08.58L158.81,351l-.09-1.21L149,359.47l2.18.64L99.87,308.77,100,310l9.69-9.68C110.61,299.33,108.18,297.64,107.38,298.44Z"/><path class="cls-1" d="M341,53.48l68.72,68.73s34.09-39,26.48-87.12a6,6,0,0,0-5.37-5C417.32,28.81,376.34,27.5,341,53.48Z"/><path class="cls-2" d="M409.71,122.94,340.19,53.43l.47-.35c35.9-26.36,78.1-24.63,90.18-23.47a6.47,6.47,0,0,1,5.81,5.4c7.56,47.8-26.25,87.14-26.59,87.53Zm-68-69.4,67.93,67.93c3.56-4.29,33.09-41.58,26-86.3a5.48,5.48,0,0,0-4.91-4.57C418.81,29.46,377.23,27.75,341.72,53.54Z"/><path class="cls-3" d="M308.89,187.74c-.22.2-.07.2-.09.25C309.14,187.62,308.86,187.73,308.89,187.74Z"/><polygon class="cls-3" points="312.18 184.13 312.15 184.22 312.58 183.64 312.18 184.13"/><path class="cls-3" d="M315.41,180.91c-.43.18-1.15,1.19-1.77,1.72l-.12.06-.16.36C314,182.34,314.88,181.37,315.41,180.91Z"/><path class="cls-3" d="M317.41,179.47c-.16.06.33-.41-.42.38l.09-.06Z"/><path class="cls-3" d="M317.08,179.79c-.34.35.26-.18,0,0Z"/><path class="cls-3" d="M318.62,178.2l-.41.49c.13-.06.53-.45.41-.29C319.05,177.92,318.93,178,318.62,178.2Z"/><path class="cls-3" d="M319,177.68l-.21.25C318.79,177.91,318.86,177.85,319,177.68Z"/><path class="cls-3" d="M318.28,178.46l.46-.53c-.09,0-.13,0-.21.24C318.53,178.1,318.47,178.23,318.28,178.46Z"/><path class="cls-3" d="M318,178.72c-.28.23-.62.53-.22,0C316.93,179.63,317.15,179.59,318,178.72Z"/><path class="cls-3" d="M315.45,180.62l-.38.29-.25.34C315,181.08,315.51,180.64,315.45,180.62Z"/><path class="cls-3" d="M321.48,175.48s-.22.08-.29.08l-.3.36A3.43,3.43,0,0,1,321.48,175.48Z"/><path class="cls-3" d="M321.19,175.56l.45-.54C321.19,175.46,321.13,175.56,321.19,175.56Z"/><polygon class="cls-3" points="318.89 177.46 318.18 178.37 319.05 177.31 318.89 177.46"/><polygon class="cls-3" points="323.37 173.6 323.15 173.94 323.56 173.35 323.37 173.6"/><path class="cls-3" d="M324.62,172.34c-.16.26.37-.2.18,0a8.88,8.88,0,0,0,.8-1A6.88,6.88,0,0,1,324.62,172.34Z"/><path class="cls-3" d="M326,170.91c-.13.15-.25.32-.39.5A4.78,4.78,0,0,0,326,170.91Z"/><path class="cls-3" d="M322.49,174.19a1.19,1.19,0,0,0,.47-.31l-.27.12Z"/><path class="cls-3" d="M322.68,174h0l.43-.42Z"/><path class="cls-3" d="M322.44,174.24l.05-.05A.08.08,0,0,0,322.44,174.24Z"/><path class="cls-3" d="M320.26,176.24c.25-.33.81-1,.16-.46C320.26,176,320.63,175.74,320.26,176.24Z"/><path class="cls-3" d="M322.11,174.39l-.54.51s.15-.06,0,.1Z"/><polygon class="cls-3" points="322.34 174.11 322.11 174.39 322.31 174.2 322.34 174.11"/><path class="cls-3" d="M325,171.74a8.33,8.33,0,0,1,.72-.79c-.32.28-.64.58-.93.88C324.78,171.89,324.69,172.06,325,171.74Z"/><path class="cls-3" d="M323.87,172.83l.05-.05S323.86,172.83,323.87,172.83Z"/><polygon class="cls-3" points="328.5 168.19 328.44 168.22 328.44 168.25 328.5 168.19"/><path class="cls-3" d="M324.73,171.86a2.74,2.74,0,0,0-.46.52l.53-.55S324.8,171.79,324.73,171.86Z"/><path class="cls-3" d="M326.72,170.11l-.43.35A1.92,1.92,0,0,0,326.72,170.11Z"/><path class="cls-3" d="M324,172.72l0,0C324.08,172.7,324.06,172.71,324,172.72Z"/><path class="cls-3" d="M324,172.72a3.25,3.25,0,0,0,.25-.34l-.35.4Z"/><path class="cls-3" d="M328.85,166.87a3.32,3.32,0,0,1-1.09,1.2c-.45.56.11.46.68.15,0,0-.05-.07.43-.63-.22.14-1.24,1.06-.86.56a3.45,3.45,0,0,1,1-.84c-.38.2.75-1,.47-1l-.56.65S329,166.72,328.85,166.87Z"/><path class="cls-3" d="M327.44,169.2l-.21.22a9,9,0,0,1,.84-.64c.32-.39.37-.49.37-.54l-1.06,1Z"/><path class="cls-3" d="M326.27,170.38c.09-.24.58-.79.18-.56a6,6,0,0,0-.72.91c1-1-.25.34.53-.35l-.53.57.56-.49,0,0h0c-.06,0-.08,0,0,0l0,0a.12.12,0,0,1,0-.08c.31-.28.07,0,0,.08a0,0,0,0,0,0,0h0l1-1.06C327,169.63,326.74,169.9,326.27,170.38Z"/><path class="cls-3" d="M320.8,175.07s0,0,.05,0S320.92,175,320.8,175.07Z"/><path class="cls-3" d="M321.26,174.7a1.5,1.5,0,0,1-.34.41c-.23.18,0,0-.07-.05-.13.16-.45.56,0,.14l.06-.08a5.32,5.32,0,0,1,1-.73A2.42,2.42,0,0,0,321.26,174.7Z"/><path class="cls-3" d="M323.78,172.49l.8-.88-.49.37h.06C323.65,172.46,323.81,172.4,323.78,172.49Z"/><polygon class="cls-3" points="328.63 168.13 328.6 168.32 328.97 167.72 328.63 168.13"/><polygon class="cls-3" points="329.72 167.03 329.75 167.14 330 166.81 329.72 167.03"/><path class="cls-3" d="M302.21,129.15l-.23.27A3.08,3.08,0,0,0,302.21,129.15Z"/><path class="cls-3" d="M304,127.37v-.08C304,127.39,303.93,127.44,304,127.37Z"/><path class="cls-3" d="M337.16,139.22c-.3-.42-.6-.93-.64-.81l0,.19A6.58,6.58,0,0,1,337.16,139.22Z"/><path class="cls-3" d="M318.29,121.2l.08.13.32.17Z"/><path class="cls-3" d="M317.72,121.26l-.43-.52C317.38,120.86,317.52,121,317.72,121.26Z"/><path class="cls-3" d="M292.46,139l-.21.37C292.71,138.94,292.47,139.09,292.46,139Z"/><path class="cls-3" d="M340.94,155.79a9.9,9.9,0,0,0,.83-.73C341.35,155.39,341,155.63,340.94,155.79Z"/><path class="cls-3" d="M302.1,127.63c-.14.17-.19.25-.16.26C302.08,127.72,302.15,127.62,302.1,127.63Z"/><path class="cls-3" d="M342.67,154.16l-.18.15c-.22.24-.44.48-.72.75A4.26,4.26,0,0,0,342.67,154.16Z"/><path class="cls-3" d="M295.39,173.64l.07.09S295.44,173.69,295.39,173.64Z"/><path class="cls-3" d="M305,184.79l-.43-.42A4.36,4.36,0,0,0,305,184.79Z"/><path class="cls-3" d="M334.17,162.66c-.22.24,0,0,0,0Z"/><path class="cls-3" d="M332.74,163.48a.17.17,0,0,0,.05-.13A.24.24,0,0,1,332.74,163.48Z"/><path class="cls-3" d="M344.52,151.37l0,0C344.45,151.41,344.47,151.4,344.52,151.37Z"/><path class="cls-3" d="M333.79,163l.32-.27Z"/><path class="cls-3" d="M333.87,163l-.21.2S333.68,163.18,333.87,163Z"/><path class="cls-3" d="M334.49,162.33c-.13.14-.26.26-.38.37.05,0,.07-.06.06,0Z"/><path class="cls-3" d="M276.31,154.91l0,0C276.54,155.08,276.46,155,276.31,154.91Z"/><path class="cls-3" d="M330.32,134l0,0,0,0Z"/><path class="cls-3" d="M329.43,133.17a3,3,0,0,1,.89.77l-.06-.5Z"/><path class="cls-3" d="M297.92,133.47l.66-.52c-.6.82-1.15,1.29-.5.84-.16-.32,2.26-2.3,2.1-2.62l.44-.34-.23.25c.87-.64.39-.73,1.39-1.67.36-.31.63-.51.43-.26l.69-.81c.23-.21.21-.11,0,.1l1.13-1.17v0c.13-.2.44-.63.6-.84.32-.25-.12.18,0,.13l.58-.69c.32-.2-.15.39-.6.82.84-.35.47-.59,1.89-1.73l-.57.63a12,12,0,0,0,1.71-1.36c-.2.12-1.57,1.14-.94.4a5.26,5.26,0,0,0,.8-.85c.09.09.43-.3.88-.76l.09.15a4.88,4.88,0,0,0,.6-.88c.56-.54.76-.57,1-.62.9-.86-.74.46.27-.59a19.9,19.9,0,0,0,2.05-2.18c.55-.48,0,.15.2,0l.36-.54c.11-.11.11,0,.1,0,.34-.41-.06-.16.47-.76,0-.1.21-.26.4-.38.13.18.24.35.35.48a4.66,4.66,0,0,0,.7.64c.15.21-.16,0-.14.08,1.11.92.93.8,1.89,1.52l.64.79c-.44-.61.33,0,1,.46l-.36-.55,1,.88c.09.13,0,.08-.24,0l.2.14c.29.38.05.27-.25.1l-.27-.41c-.3-.16-.59-.3-.61-.19a2.67,2.67,0,0,1,.34.28c-.08,0-.14-.07-.12,0s.14.12.32.24l.09.34h.1l1.14,1.31a31.69,31.69,0,0,1,3.39,2.66c-.44-.25-.23.08-.36.17-.26-.5-1.12-1-1.81-1.77.36.38.22.35.11.28l1.39,1.18c-.12.06.2.34.5.71-.08-.43,1.07.84,1.65,1.31,0,.09-.21,0-.84-.63.57.84,1.12.71,1.69,1.51-.15-.15-.23-.25-.32-.28.42.31,1.26,1.25,1,1.09l-.16-.16a22.76,22.76,0,0,0,3.45,3.16.9.9,0,0,1-.41,0l2.34,1.34c-.29,0,0,.9-.9.12a8.1,8.1,0,0,0,1.07,1.06c-.15-.19-.23-.6,0-.39a14.58,14.58,0,0,0,1,1.42c-.22-.28.26-.2.65.2-.09,0-.17.23-.33.11l1.18.79c-.28-.21-.21.13-.05.4-.06-.14.85.86,1.14,1.11l-.38-.47c1.09,1.15,1.39.83,2.48,1.95-.17-.09-.58-.08-.05.51a10.43,10.43,0,0,1,2.69,1.56l.13.25.82.68a35.46,35.46,0,0,1-3.1-1.9,4,4,0,0,0,.68.81c.16.27-.42-.26-.61-.45l1.42,1.5c.05-.18,1.23,1,1.27.84l-1.7-1.46c.05-.18,1.25.58,2.26,1.64.22.31-.41,0-.43.07a7.53,7.53,0,0,1,1.13,1l-.5-.38c.52.62,1.09.79,1.66,1.59.24.25.56.87.67.84-.25-.53.1-1,.46-.86.07.09,1.12,1.38,1.32,1.72.29.5-.84-.34-.6.09.05,0,.3.16.41.24.22.27-.21,0,.35.52.23,0,.69.72.3.1a3.06,3.06,0,0,1,.36.35,5.57,5.57,0,0,0-.52.47c.27-.12-.3.83-.8,1.4,0-.07-.16,0-.23.05-1.11,1.08-1.75,1.61-2.77,2.62-.12.07-.65.52-.49.26a4.94,4.94,0,0,1-.53.66c-.72.5.68-.71.09-.38a9.53,9.53,0,0,1-1.12,1.4c.25,0,1.06-1,1.46-1.5.15.15-.47,1.08-1.47,2.21-.81.88-.46.27-.59.44-1.61,1.56-1.09,1.61-2.52,2.82-.62.42-.21-.17-.4-.12.66-.73,1.12-1,1.59-1.47l-.62.53a6.14,6.14,0,0,1,.9-1c-.53.35-2.7,2.66-4,3.8-.19.25-.53.66-.31.52l.37-.4c.44-.28-.62.83-.1.38a13.64,13.64,0,0,1-1.74,1.92l-.24,0a2.86,2.86,0,0,0,.71-.65c-.26.35-1.27,1-1.46,1.45l.59-.44a15.13,15.13,0,0,1-1.69,1.95c.41-.19.14-.16.73-.5-.56.25,1.67-1.65.86-1.17.62-.33.88-.75,1.62-1.25-.05,0-.28.15.28-.37a.6.6,0,0,1,.09-.15l0,0,0,0s0,0,0,0a1.64,1.64,0,0,1-.33.22c.19-.35,1.06-1.21,1.31-1.55s-.1.18.12,0l.37-.5c.13,0,1-.72.28.08l.69-.68a10.15,10.15,0,0,0,1.33-1.27c.34-.3.73-.9.51-.55l1-1.13h0a40.39,40.39,0,0,1,3.41-3.37,15.05,15.05,0,0,1,1.3-1.34l.19-.05c.43-.48,1.44-1.3,1.57-1.57a3.31,3.31,0,0,0,.66-.49l.23-.22.39-.37.81-.82c-.5-.48-1-1-1.49-1.45-.29-.27-.55-.53-.74-.74l-.12.06c-.55-.56-1.1-1.07-1.83-1.72l0,.12c-.66-.53-1.47-1.58-2.41-2.52a2.26,2.26,0,0,1,.47.47c-.94-1.3-2.49-2.24-3.38-3.39a3.51,3.51,0,0,1-.61-.62l.07.06-.1-.1-.31-.4a2.5,2.5,0,0,0,.25.34c-.2-.19-.5-.48-.81-.75l0-.21-.07-.06c-.25-.32-.27-.19-.18,0a4.56,4.56,0,0,0-.44-.33c-.09-.37-.8-.72-1-1.18-.27-.13-1.52-1.41-1.82-1.42,0,0-.07-.12.09,0a7.48,7.48,0,0,0-.94-.93l0-.24-.85-.57c-.37-.49-.51-.71,0-.37-1.15-.9-.88-.79-1.88-1.54l.11,0a8.49,8.49,0,0,1-1-1c-.56-.83-3.44-3.49-5.11-5.42.14.56-.74-.93-1-.84-.06-.15-.28-.43.05-.18a19.44,19.44,0,0,0-2.07-2c-.05-.15.27.13.21,0a1.55,1.55,0,0,1-.4-.37c-.07-.12.17.09.34.22-.94-.94-1.19-.88-1.4-.81a3.22,3.22,0,0,0-1.09-1c-.12-.21-.34-.54.25,0a15.93,15.93,0,0,0-2.07-2,3.49,3.49,0,0,0-.55-.54c-.76-.78-.68-.72-1.71-1.73l.26.3a1.22,1.22,0,0,1-.42-.29l-.46.43a7.33,7.33,0,0,0-.57.55v0c-1.44,1.23-.53.62-2,1.82H311c.06.31-1.27,1.06-2,1.89l.33-.22c-.36.48-1.42.91-1.86,1.31-.11.07.12-.17.23-.31-1.21,1,0,.25-.82,1.1-.21.09,0-.35-.52.19a32.21,32.21,0,0,1-2.28,2.42c.22-.12.43-.24.08.18a15.47,15.47,0,0,0-2.13,2.06c-.09.06-.13.08-.14.07a23.66,23.66,0,0,0-1.58,1.86c-.71.11-2.63,2.9-2.89,2.62l-1.36,1.38v-.06a7.71,7.71,0,0,0-1.38,1.6c-.22.18-.1,0-.1,0a15.06,15.06,0,0,0-2.39,2.56l-.2,0c-.24.34-2,1.7-3.14,3.06,0,0,0-.07.1-.18-1.32,1.51-3.63,3.13-3.83,4l-.86,1c1.24-1.18,0,.32.51-.12-.45.49-1.32,1.12-.75.53l.1-.08c.05-.38-1.56,1.44-1.64,1.29-1.18,1.19-2.37,2.34-3.55,3.46l-1.75,1.68-1.95,1.91.56-.31-.67.67.39.39c.23.29.26.47-.58-.38a5.57,5.57,0,0,0,.88.86,1.73,1.73,0,0,0,.35.26l.15.08c1,1.14-.57-.27-.25.06l.46.44-.08-.11a6.15,6.15,0,0,1,1.16,1c.39.45.13.29.29.47l.25.25,1,1-.29-.49c.48.38.91.92.58.36.48.84,3.57,3.71,3.92,4.17a21,21,0,0,1,2,1.88c-.16-.2-.16-.43.47.23-.47,0,1.06,1.27,1.41,2-.35-.57,1.84,1.79,1.27.91.52.55,0,.12.3.58,1.35,1.18,2.73,2.86,4.32,4.4.06,0-.16-.32.23,0l.67,1c.32.29.46.11.92.78-.06-.11-.14-.27.08-.07,2.92,3.23,6.39,6.17,9.22,9.58-.36-.48-.07-.21.25.11-.19-.22.08-.07.08-.15l1.19,1.42c.35.13,1.41,1.4,1.65,1.42l-.43-.39c.68.42-.47-1.06-.22-1.15-.77-.47-1.4-1.85-2.63-2.65-.18-.26.25.14.17,0a5,5,0,0,1-1.19-1.09l.08.05c-1.63-1.6-2.24-2.36-4-4.22l0,.22a5.51,5.51,0,0,1-.59-.72c-.58-.32,1.08,1.11.53.84-.34-.69-2.73-2.75-2.89-3.29-.59-.6.08.27-.51-.33l-.11-.21-.22-.09c-.38-.4-.51-.67-.48-.72.09.1.28.25.39.35-.45-.57-1.45-1.41-1.61-1.61l.54.61c-1.68-1.59-3.6-3.65-5.28-5.13l.08.16c-1.27-1.13-.92-1-2.27-2.3l.06,0a7.57,7.57,0,0,1-1-.93c.37.29-.54-.72-.05-.33a8.36,8.36,0,0,0-1.72-1.3l-.13-.27a4.91,4.91,0,0,1-1.09-.87c.6.49-.32-.52.36,0-1.24-1.53-2.19-1.91-2.62-2.76-.82-.46,1.1,1.3.7,1,.24.36-.66-.39-1.07-.84a17,17,0,0,0-1.64-2.1l.24.22c-.37-.47-.87-.76-1.31-1.35-.4-.17-.66-.67-.88-.61l1.05,1a17.9,17.9,0,0,1-1.78-1.51l.27-.24a1.31,1.31,0,0,1-.12.24l.22.17a.46.46,0,0,0-.14-.17,2.16,2.16,0,0,1,.37-.37c0,.08-.06.21-.2.37l.35.34a6.77,6.77,0,0,0,.67.57,4.78,4.78,0,0,0-.64-.63c-.12-.09-.18-.15,0-.13a.63.63,0,0,1-.32-.15c.08-.1.22-.2.33-.31a4.35,4.35,0,0,0,.7-.8l0,.13a7.2,7.2,0,0,1,.54-.63l-.29.5c.52-.7,1.26-1.09,1.8-1.73-1.23,1.23-.38.18-1,.63,1.4-1.62,1.09-.64,2.75-2.37-.22.24-.92.8-.59.41a8.92,8.92,0,0,1,1-.85c1.1-1.14-.26.08.16-.45.49-.27.51-.59,1-1.11l.09.08c1.34-1.22.17-.52,1.38-1.6l-.36.61.57-.63,0,.22a10.09,10.09,0,0,1,1.47-1.52c-.21.09-.07-.24.49-.81.44-.33-.13.3.66-.51a1.8,1.8,0,0,1-.69.77c0,.06-.12.23-.13.29a14.28,14.28,0,0,0,1.35-1.32,3.34,3.34,0,0,1-.34.29l1.05-1.27c.22-.16.1,0,0,.18.22-.24.35-.44.69-.8,0,.16.07.21-.39.74l1-1.19c.1,0,.65-.48.53-.31.66-.58,1.38-1.64,2.25-2.4a1.83,1.83,0,0,1,.26-.34,23.52,23.52,0,0,0,2.36-2.34l.64-.39c.69-.74-.85.54.29-.69.8-.87.42-.2.75-.46a9.37,9.37,0,0,1,1.82-2C298.37,133,298.15,133.22,297.92,133.47Zm8.73-8.81a3,3,0,0,1-.61.66C306.14,125,306.33,124.92,306.65,124.66Zm12.76-2a2.64,2.64,0,0,1-.52-.56A4.12,4.12,0,0,1,319.41,122.66ZM336.66,160v0C337.08,159.68,336.94,159.8,336.66,160Zm-.83.75c-.06.09-.05.1,0,.08a2.27,2.27,0,0,1,.41-.45A1.43,1.43,0,0,0,335.83,160.79Zm-57.76-3-.13-.17C278.31,158,278.19,157.89,278.07,157.82Z"/><path class="cls-3" d="M317.79,121.26a.16.16,0,0,1,0-.12C317.68,121.09,317.66,121.1,317.79,121.26Z"/><path class="cls-3" d="M292.5,139l0,0s0,0,0,0Z"/><path class="cls-3" d="M344.92,148.59a2.35,2.35,0,0,1-.27-.35S344.68,148.34,344.92,148.59Z"/><path class="cls-3" d="M331.8,165.1l.48-.53a3.55,3.55,0,0,1-.48.43S332,164.94,331.8,165.1Z"/><path class="cls-3" d="M326.89,168.94c-.06.08-.16.15-.22.24l.06,0C327,168.88,327.23,168.63,326.89,168.94Z"/><path class="cls-3" d="M331.05,165.28c-.11,0-.4.31-.75.68l.07-.07C330.36,166.1,330.71,165.69,331.05,165.28Z"/><path class="cls-3" d="M330.23,166l-.33.33C329.9,166.45,330,166.24,330.23,166Z"/><path class="cls-3" d="M334.88,161.84c-.19.15,0,.19-.14.26C334.65,162.38,335.75,160.87,334.88,161.84Z"/><polygon class="cls-3" points="330.53 165.33 330.74 165.29 330.87 165.02 330.53 165.33"/><path class="cls-3" d="M333.38,162.61l-.58.54s0,.09-.13.18A4.88,4.88,0,0,0,333.38,162.61Z"/><path class="cls-3" d="M332.67,163.33c-.18.18-.35.36-.44.47C332.33,163.7,332.54,163.49,332.67,163.33Z"/><polygon class="cls-3" points="331.27 164.53 331.46 164.39 331.86 164 331.27 164.53"/><path class="cls-3" d="M339.48,156.58l.59-.64c0-.1-.15.05-.37.29S339.35,156.64,339.48,156.58Z"/><path class="cls-3" d="M337.37,158.19a1.5,1.5,0,0,1,.34-.2l-.09-.13Z"/><path class="cls-3" d="M339.14,156.38c0-.1.81-1,0-.2C339.14,156.27,338.55,156.91,339.14,156.38Z"/><polygon class="cls-3" points="344.27 147.34 344.43 147.5 344.58 147.29 344.27 147.34"/><path class="cls-3" d="M335.68,139.58c.68.77.28.06.89.78.21.12-.5-.59-.29-.45C335.8,139.51,335.59,139.26,335.68,139.58Z"/><path class="cls-3" d="M336.28,139.91l.26.2A2,2,0,0,0,336.28,139.91Z"/><polygon class="cls-3" points="306.57 186.61 307 187.12 306.76 186.76 306.57 186.61"/><path class="cls-3" d="M307.6,187.38v.23l.38.18A2.84,2.84,0,0,1,307.6,187.38Z"/><path class="cls-3" d="M308.19,123.59v-.06a1.64,1.64,0,0,0-.44.36Z"/><polygon class="cls-3" points="301.73 129.86 301.84 129.75 301.53 129.85 301.73 129.86"/><path class="cls-3" d="M296.51,135.32l.68-.71C296.73,135.11,296.32,135.25,296.51,135.32Z"/><rect class="cls-3" x="278.21" y="142.83" width="53.88" height="46.21" transform="translate(-28.15 263.72) rotate(-44.89)"/><path class="cls-4" d="M312.42,143.24l.39.39q4.15,4.17-1,13.61a24.91,24.91,0,0,1-2.17,2.56q-6.06,6-17.58,6.88l-2.56-1.39a6.73,6.73,0,0,1,1-1.77l.19.2.2-.59q5-5.38,8.51-8.87l.59-.59a.25.25,0,0,1,.4,0,.24.24,0,0,0,0-.39,8,8,0,0,1,1.58-1.19q2.46-2.85,4.35-4.72l.39-.39a.25.25,0,0,1,.4,0l.19-.59.79-.79C310.4,143.45,311.85,142.67,312.42,143.24Zm-.4,1.58-.2.19a8.31,8.31,0,0,0-1.18,1.58q-3.84,3.42-13,12.2-3,3.41-5.55,5.92a19.6,19.6,0,0,0,16-6.09l2-2q3-4.22,2.58-10.85Z"/><circle class="cls-1" cx="217.57" cy="64.07" r="3.87"/><circle class="cls-1" cx="393.88" cy="175.24" r="3.87"/><circle class="cls-1" cx="383.39" cy="252.57" r="3.87"/><circle class="cls-1" cx="264.67" cy="54.1" r="3.87"/><circle class="cls-1" cx="432.19" cy="144.72" r="3.87"/><circle class="cls-1" cx="367.26" cy="3.87" r="3.87"/><circle class="cls-1" cx="195.88" cy="122.9" r="3.87"/></g></g></svg>